<?xml version="1.0" encoding="iso-8859-1"?>
<!-- Generator: Adobe Illustrator 19.1.1, SVG Export Plug-In . SVG Version: 6.00 Build 0)  -->
<svg version="1.1" xmlns="http://www.w3.org/2000/svg" xmlns:xlink="http://www.w3.org/1999/xlink" x="0px" y="0px"
	 viewBox="0 0 100 100" style="enable-background:new 0 0 100 100;" xml:space="preserve">
<g id="_x31_">
	<g>
		<g>
			<path style="fill-rule:evenodd;clip-rule:evenodd;fill:#88D2DB;" d="M100,5.119V26.5H0V6.191C2.426,7.924,5.301,8.961,8,9
				c5.818,0.084,12.013-5.274,17.54-5.962C31.79,2.26,35.421,8,45,8c9.509,0,8-8,16-8c7,0,9.354,9.338,16.072,9.089
				c3.221-0.119,6.41-1.678,6.54-2.584c1.59-0.221,2.983-3.847,6.564-0.861C92.277,7.397,96.794,7.264,100,5.119z"/>
			<path style="fill-rule:evenodd;clip-rule:evenodd;fill:#6ECBD4;" d="M100,10.369c0,5.295,0,10.59,0,15.884
				c-33.333,0-66.667,0-100,0c0-4.937,0-9.874,0-14.812c2.426,1.733,5.301,2.771,8,2.809c5.818,0.084,12.013-5.274,17.54-5.962
				C31.79,7.51,35.421,13.25,45,13.25c9.509,0,8.031-7.004,16-7.5c6.873-0.422,9.354,8.838,16.072,8.59
				c3.221-0.119,6.41-1.678,6.54-2.584c1.59-0.221,2.983-3.847,6.564-0.861C92.277,12.647,96.794,12.514,100,10.369z"/>
			<path style="fill-rule:evenodd;clip-rule:evenodd;fill:#57C5CC;" d="M100,15.619v10.387l-100,0v-9.315
				c2.426,1.733,5.301,2.771,8,2.809c5.818,0.084,12.013-5.274,17.54-5.962C31.79,12.76,35.421,18.5,45,18.5
				c9.509,0,8.062-6.007,16-7c6.747-0.844,9.354,8.339,16.072,8.09c3.221-0.119,6.41-1.678,6.54-2.584
				c1.59-0.221,2.983-3.847,6.564-0.861C92.277,17.897,96.794,17.764,100,15.619z"/>
		</g>
		<g>
			<path style="fill-rule:evenodd;clip-rule:evenodd;fill:#00BABE;" d="M5.602,13.217c1.828-3.306,7.346,0.591,16.125-4.25
				C9.522,18.394,8.933,8.892,5.602,13.217z"/>
			<path style="fill-rule:evenodd;clip-rule:evenodd;fill:#88D2DB;" d="M30.102,13.717c8.038-2.084,10.256,1.748,20.513-1.616
				c3.191-1.047,4.446-1.415,7.862-1.259c-3.279,0.149-4.61,0.629-7.53,2.049C37.581,19.389,42.432,11.725,30.102,13.717z"/>
			<path style="fill-rule:evenodd;clip-rule:evenodd;fill:#88D2DB;" d="M67.352,14.467c12.358,1.128,1.345,1.837,14.623-1.503
				c2.836-0.714,7.018-2.58,9.627-0.247c-2.653-1.914-6.699,0.192-9.087,1.53C74.512,18.729,74.184,15.837,67.352,14.467z"/>
			<path style="fill-rule:evenodd;clip-rule:evenodd;fill:#BBE4EB;" d="M56.352,6.216c2.502-4.543,7.346-2.004,10.625,0.375
				l-0.246-0.105C60.936,6.143,59.22,3.036,56.352,6.216z"/>
			<path style="fill-rule:evenodd;clip-rule:evenodd;fill:#00A4A6;" d="M30.352,16.716c3.44,0.265,6.271,1.75,7.375,1.375
				C34.789,20.436,32.254,17.651,30.352,16.716z"/>
			<path style="fill-rule:evenodd;clip-rule:evenodd;fill:#BBE4EB;" d="M25.977,6.341c0.054,0.007,6.973,0.375,7.125,0.375
				c-2.482,1.117-1.293,0.54-3.575,1.719C27.225,7.133,28.41,7.828,25.977,6.341z"/>
			<path style="fill-rule:evenodd;clip-rule:evenodd;fill:#00A4A6;" d="M17.352,14.842c1.625-1.224,2.335-1.802,4.085-2.776
				c1.952,0.871,2.114,1.369,4.29,1.901c-1.738,0.137-3.049-0.354-4.13,0.333C19.756,13.805,19.294,14.233,17.352,14.842z"/>
			<path style="fill-rule:evenodd;clip-rule:evenodd;fill:#00A4A6;" d="M56.602,14.217c4.462-2.604,5.121-1.273,8.531,1.514
				l-0.005-0.003c0.232,0.16,0.116,0.08,0.349,0.239C63.099,15.177,58.982,13.649,56.602,14.217z"/>
			<path style="fill-rule:evenodd;clip-rule:evenodd;fill:#00BABE;" d="M62.727,8.592c6.029-0.284,5.4,1.706,10.875,2.5
				c-0.265,0.024-0.133,0.012-0.398,0.036l0.004,0C64.615,12.186,69.068,9.894,62.727,8.592z"/>
			<path style="fill-rule:evenodd;clip-rule:evenodd;fill:#BBE4EB;" d="M85.602,8.217c0.628-1.186,1.052-1.314,2.204-2.028
				c1.357,0.556,1.625,0.856,2.796,1.653c-1.288-0.11-1.546-0.124-2.786,0.316C86.835,7.605,86.6,7.554,85.602,8.217z"/>
			<path style="fill-rule:evenodd;clip-rule:evenodd;fill:#00BABE;" d="M95.602,10.217c0.782-0.45,3.006-1.531,4.125-1.25
				C98.094,9.547,99.877,11.306,95.602,10.217z"/>
			<path style="fill-rule:evenodd;clip-rule:evenodd;fill:#00BABE;" d="M0.352,10.217c4.187-0.694,2.99,2.031,4.75,2.625
				C2.484,13.233,2.01,10.762,0.352,10.217z"/>
			<path style="fill-rule:evenodd;clip-rule:evenodd;fill:#BBE4EB;" d="M8.352,16.842c1.659-0.505,0.892-0.111,2.29-1.198
				c1.425,0.92,0.646,0.69,2.335,0.698c-1.489,1.098-0.742,0.511-2.233,1.766C9.208,17.028,10.012,17.436,8.352,16.842z"/>
			<path style="fill-rule:evenodd;clip-rule:evenodd;fill:#BBE4EB;" d="M69.977,19.342c0.667-0.126,2.597-0.227,2.878-0.647
				c1.261,0.815,1.218,0.054,2.747,0.147c-0.275,0.113-0.138,0.056-0.412,0.172l0.032-0.011c-0.618,0.562-1.635,1.761-2.531,1.866
				C71.413,19.859,71.664,19.859,69.977,19.342z"/>
			<path style="fill-rule:evenodd;clip-rule:evenodd;fill:#00BABE;" d="M38.852,9.342c1.331,0.878,6.461,0.841,8.75,1.125
				C44.253,11.15,41.819,12.932,38.852,9.342z"/>
			<path style="fill-rule:evenodd;clip-rule:evenodd;fill:#00A4A6;" d="M94.602,13.717c3.217-0.194,1.95-0.169,4.875,1.25
				C95.388,15.654,97.332,15.2,94.602,13.717z"/>
			<path style="fill-rule:evenodd;clip-rule:evenodd;fill:#00A4A6;" d="M0.102,15.467c2.142-0.941,3.008-1.168,5.25-1
				C2.292,15.871,5.383,17.019,0.102,15.467z"/>
			<path style="fill-rule:evenodd;clip-rule:evenodd;fill:#00BABE;" d="M23.102,8.967c2.071-1.915,5.198,1.831,12.487-0.213
				c0.194-0.054,0.193-0.041,0.388-0.037c-0.185,0.033-0.188,0.02-0.36,0.107C24.625,14.427,27.011,6.557,23.102,8.967z"/>
			<path style="fill-rule:evenodd;clip-rule:evenodd;fill:#00BABE;" d="M52.477,8.592c2.538-1.409,1.271-0.638,3.791-2.327
				c1.68,0.656,2.54,0.742,4.209,1.577c-1.878-0.233-2.353-0.298-3.845,0.843C53.869,8.184,55.254,8.215,52.477,8.592z"/>
		</g>
		<g>
			<path style="fill-rule:evenodd;clip-rule:evenodd;fill:#88D2DB;" d="M0,26.002l100-0.007v-6.411c-2.611-2.196-5.92-3.541-9-3.585
				c-5.818-0.084-12.013,5.274-17.54,5.962C67.209,22.74,63.579,17,54,17c-9.508,0-8.062,6.007-16,7
				c-6.747,0.844-9.354-8.339-16.072-8.09c-3.221,0.119-6.41,1.678-6.54,2.584c-1.59,0.221-2.983,3.847-6.564,0.861
				C6.979,17.817,3.139,17.81,0,19.32L0,26.002z"/>
			<path style="fill-rule:evenodd;clip-rule:evenodd;fill:#39C0C3;" d="M0,45.083l100-0.007l0-24.396
				c-2.611-2.196-5.92-3.541-9-3.585c-5.818-0.084-12.013,5.274-17.54,5.962c-6.25,0.778-9.881-4.962-19.46-4.962
				c-9.508,0-8.062,6.008-16,7c-6.747,0.844-9.354-8.339-16.072-8.09c-3.221,0.119-6.41,1.678-6.54,2.584
				c-1.59,0.221-2.983,3.847-6.564,0.861C6.979,18.912,3.139,18.905,0,20.415L0,45.083z"/>
			<path style="fill-rule:evenodd;clip-rule:evenodd;fill:#00B4B6;" d="M0,63.406L100,63.4V39.346c-2.611-2.196-5.92-3.541-9-3.585
				c-5.818-0.084-12.013,5.274-17.54,5.962c-6.25,0.778-9.881-4.962-19.46-4.962c-9.508,0-8.062,6.007-16,7
				c-6.747,0.844-9.354-8.339-16.072-8.09c-3.221,0.119-6.41,1.678-6.54,2.584c-1.59,0.221-2.983,3.847-6.564,0.861
				C6.979,37.578,3.139,37.571,0,39.081L0,63.406z"/>
			<path style="fill-rule:evenodd;clip-rule:evenodd;fill:#00A4A6;" d="M0,81.729l100-0.007v-23.71c-2.611-2.196-5.92-3.541-9-3.585
				c-5.818-0.084-12.013,5.274-17.54,5.962c-6.25,0.778-9.881-4.962-19.46-4.962c-9.508,0-8.062,6.007-16,7
				c-6.747,0.844-9.354-8.339-16.072-8.09c-3.221,0.119-6.41,1.678-6.54,2.584c-1.59,0.221-2.983,3.847-6.564,0.861
				C6.979,56.244,3.139,56.237,0,57.747V81.729z"/>
			<path style="fill-rule:evenodd;clip-rule:evenodd;fill:#009294;" d="M100,76.68c-2.611-2.196-5.92-3.541-9-3.585
				c-5.818-0.084-12.013,5.274-17.54,5.962c-6.25,0.778-9.881-4.962-19.46-4.962c-9.508,0-8.062,6.007-16,7
				c-6.747,0.844-9.354-8.339-16.072-8.09c-3.221,0.119-6.41,1.678-6.54,2.584c-1.59,0.221-2.983,3.847-6.564,0.861
				C6.979,74.912,3.139,74.905,0,76.415L0,100h100V76.68z"/>
		</g>
		<g>
			<circle style="opacity:0.4392;fill-rule:evenodd;clip-rule:evenodd;fill:#BBE4EB;" cx="78.957" cy="48.039" r="2.961"/>
			<path style="opacity:0.8392;fill-rule:evenodd;clip-rule:evenodd;fill:#EFF8F5;" d="M78.957,45.078
				c1.635,0,2.961,1.326,2.961,2.961c0,1.051-0.548,1.974-1.373,2.499C80.833,50.081,81,49.541,81,48.961
				C81,47.326,79.674,46,78.039,46c-0.584,0-1.129,0.17-1.588,0.462C76.975,45.631,77.902,45.078,78.957,45.078z"/>
		</g>
		<g>
			<circle style="opacity:0.4392;fill-rule:evenodd;clip-rule:evenodd;fill:#BBE4EB;" cx="32" cy="69" r="3"/>
			<path style="opacity:0.8392;fill-rule:evenodd;clip-rule:evenodd;fill:#EFF8F5;" d="M32,66c1.657,0,3,1.343,3,3
				c0,1.084-0.576,2.035-1.438,2.562C33.84,71.107,34,70.572,34,70c0-1.657-1.343-3-3-3c-0.572,0-1.107,0.16-1.562,0.438
				C29.965,66.575,30.915,66,32,66z"/>
		</g>
		<g>
			
				<circle style="opacity:0.4392;fill-rule:evenodd;clip-rule:evenodd;fill:#BBE4EB;stroke:#57C5CC;stroke-width:1.11;stroke-miterlimit:22.9256;" cx="75" cy="87" r="2"/>
			<path style="opacity:0.8392;fill-rule:evenodd;clip-rule:evenodd;fill:#EFF8F5;" d="M75,85c1.104,0,2,0.896,2,2
				c0,0.811-0.483,1.509-1.176,1.823C75.937,88.572,76,88.293,76,88c0-1.104-0.896-2-2-2c-0.294,0-0.572,0.063-0.824,0.177
				C73.49,85.483,74.189,85,75,85z"/>
		</g>
		<g>
			<circle style="opacity:0.4392;fill-rule:evenodd;clip-rule:evenodd;fill:#BBE4EB;" cx="88" cy="65" r="2"/>
			<path style="opacity:0.8392;fill-rule:evenodd;clip-rule:evenodd;fill:#EFF8F5;" d="M88,63c1.104,0,2,0.895,2,2
				c0,0.811-0.483,1.509-1.176,1.823C88.937,66.572,89,66.293,89,66c0-1.104-0.896-2-2-2c-0.294,0-0.572,0.063-0.823,0.177
				C86.49,63.483,87.189,63,88,63z"/>
		</g>
		<g>
			<circle style="opacity:0.4392;fill-rule:evenodd;clip-rule:evenodd;fill:#BBE4EB;" cx="11" cy="86" r="2"/>
			<path style="opacity:0.8392;fill-rule:evenodd;clip-rule:evenodd;fill:#EFF8F5;" d="M11,84c1.105,0,2,0.895,2,2
				c0,0.811-0.483,1.51-1.177,1.824C11.937,87.573,12,87.294,12,87c0-1.105-0.895-2-2-2c-0.293,0-0.572,0.063-0.823,0.177
				C9.491,84.483,10.189,84,11,84z"/>
		</g>
		<g>
			<circle style="opacity:0.4392;fill-rule:evenodd;clip-rule:evenodd;fill:#BBE4EB;" cx="45.04" cy="48.041" r="2.959"/>
			<path style="opacity:0.8392;fill-rule:evenodd;clip-rule:evenodd;fill:#EFF8F5;" d="M45.04,45.081
				c1.634,0,2.959,1.325,2.959,2.959c0,1.108-0.609,2.074-1.51,2.581c0.322-0.474,0.51-1.046,0.51-1.662
				c0-1.634-1.325-2.959-2.959-2.959c-0.527,0-1.021,0.138-1.449,0.379C43.124,45.596,44.022,45.081,45.04,45.081z"/>
		</g>
		<g>
			<circle style="opacity:0.4392;fill-rule:evenodd;clip-rule:evenodd;fill:#BBE4EB;" cx="67" cy="29" r="2"/>
			<path style="opacity:0.8392;fill-rule:evenodd;clip-rule:evenodd;fill:#EFF8F5;" d="M67,27c1.104,0,2,0.895,2,2
				c0,0.811-0.483,1.509-1.176,1.823C67.937,30.572,68,30.293,68,30c0-1.104-0.895-2-2-2c-0.294,0-0.572,0.063-0.823,0.177
				C65.49,27.483,66.189,27,67,27z"/>
		</g>
		<g>
			
				<circle style="opacity:0.4392;fill-rule:evenodd;clip-rule:evenodd;fill:#BBE4EB;stroke:#57C5CC;stroke-width:1.11;stroke-miterlimit:22.9256;" cx="51" cy="83" r="2"/>
			<path style="opacity:0.8392;fill-rule:evenodd;clip-rule:evenodd;fill:#EFF8F5;" d="M51,81c1.104,0,2,0.895,2,2
				c0,0.811-0.482,1.509-1.176,1.823C51.937,84.571,52,84.293,52,84c0-1.104-0.895-2-2-2c-0.294,0-0.573,0.063-0.824,0.177
				C49.49,81.483,50.189,81,51,81z"/>
		</g>
		<g>
			<circle style="opacity:0.4392;fill-rule:evenodd;clip-rule:evenodd;fill:#BBE4EB;" cx="63" cy="65" r="2"/>
			<path style="opacity:0.8392;fill-rule:evenodd;clip-rule:evenodd;fill:#EFF8F5;" d="M63,63c1.104,0,2,0.895,2,2
				c0,0.811-0.483,1.509-1.176,1.823C63.937,66.572,64,66.293,64,66c0-1.104-0.895-2-2-2c-0.294,0-0.572,0.063-0.824,0.177
				C61.49,63.483,62.189,63,63,63z"/>
		</g>
		<g>
			<circle style="opacity:0.4392;fill-rule:evenodd;clip-rule:evenodd;fill:#BBE4EB;" cx="93" cy="34" r="2"/>
			<path style="opacity:0.8392;fill-rule:evenodd;clip-rule:evenodd;fill:#EFF8F5;" d="M93,32c1.104,0,2,0.896,2,2
				c0,0.811-0.483,1.509-1.176,1.823C93.937,35.572,94,35.293,94,35c0-1.104-0.896-2-2-2c-0.294,0-0.572,0.063-0.824,0.177
				C91.49,32.483,92.189,32,93,32z"/>
		</g>
		<g>
			<circle style="opacity:0.4392;fill-rule:evenodd;clip-rule:evenodd;fill:#BBE4EB;" cx="11" cy="51" r="2"/>
			<path style="opacity:0.8392;fill-rule:evenodd;clip-rule:evenodd;fill:#EFF8F5;" d="M11,49c1.104,0,2,0.896,2,2
				c0,0.811-0.483,1.509-1.176,1.823C11.937,52.572,12,52.293,12,52c0-1.104-0.895-2-2-2c-0.294,0-0.572,0.063-0.824,0.177
				C9.49,49.483,10.189,49,11,49z"/>
		</g>
		<g>
			<circle style="opacity:0.4392;fill-rule:evenodd;clip-rule:evenodd;fill:#BBE4EB;" cx="16" cy="31" r="4"/>
			<path style="opacity:0.8392;fill-rule:evenodd;clip-rule:evenodd;fill:#EFF8F5;" d="M16,27c2.209,0,4,1.791,4,4
				c0,1.36-0.679,2.561-1.716,3.284C18.735,33.636,19,32.849,19,32c0-2.209-1.791-4-4-4c-0.849,0-1.637,0.265-2.284,0.716
				C13.438,27.679,14.64,27,16,27z"/>
		</g>
	</g>
</g>
<g id="Layer_1">
</g>
</svg>
