<?xml version="1.0" encoding="iso-8859-1"?>
<!-- Generator: Adobe Illustrator 19.1.1, SVG Export Plug-In . SVG Version: 6.00 Build 0)  -->
<svg version="1.1" xmlns="http://www.w3.org/2000/svg" xmlns:xlink="http://www.w3.org/1999/xlink" x="0px" y="0px"
	 viewBox="0 0 100 100" style="enable-background:new 0 0 100 100;" xml:space="preserve">
<g id="Layer_3">
	<g>
		<rect y="0" style="fill-rule:evenodd;clip-rule:evenodd;fill:#008889;" width="100" height="100"/>
		<path style="fill-rule:evenodd;clip-rule:evenodd;fill:#009294;" d="M52,25c1.652,0,3-1.348,3-3s-1.348-3-3-3
			c-1.652,0-3,1.348-3,3S50.348,25,52,25z"/>
		<path style="fill-rule:evenodd;clip-rule:evenodd;fill:#009294;" d="M86,16c1.652,0,3-1.348,3-3s-1.348-3-3-3
			c-1.652,0-3,1.348-3,3C83,14.652,84.348,16,86,16z"/>
		<path style="fill-rule:evenodd;clip-rule:evenodd;fill:#009294;" d="M39,55c1.652,0,3-1.348,3-3c0-1.652-1.348-3-3-3
			c-1.652,0-3,1.348-3,3C36,53.652,37.348,55,39,55z"/>
		<path style="fill-rule:evenodd;clip-rule:evenodd;fill:#009294;" d="M19,16c2.203,0,4-1.797,4-4c0-2.203-1.797-4-4-4
			c-2.203,0-4,1.797-4,4C15,14.203,16.797,16,19,16z"/>
		<path style="fill-rule:evenodd;clip-rule:evenodd;fill:#009294;" d="M19,89c2.203,0,4-1.797,4-4c0-2.203-1.797-4-4-4
			c-2.203,0-4,1.797-4,4C15,87.203,16.797,89,19,89z"/>
		<path style="fill-rule:evenodd;clip-rule:evenodd;fill:#009294;" d="M15,45c1.652,0,3-1.348,3-3c0-1.652-1.348-3-3-3s-3,1.348-3,3
			C12,43.652,13.348,45,15,45z"/>
		<path style="fill-rule:evenodd;clip-rule:evenodd;fill:#009294;" d="M85,84c1.652,0,3-1.348,3-3c0-1.652-1.348-3-3-3
			c-1.652,0-3,1.348-3,3C82,82.652,83.348,84,85,84z"/>
		<path style="fill-rule:evenodd;clip-rule:evenodd;fill:#009294;" d="M53,86c1.102,0,2-0.898,2-2s-0.898-2-2-2
			c-1.101,0-2,0.899-2,2C51,85.102,51.899,86,53,86z"/>
		<circle style="fill-rule:evenodd;clip-rule:evenodd;fill:#009294;" cx="67" cy="61" r="2"/>
		<circle style="fill-rule:evenodd;clip-rule:evenodd;fill:#009294;" cx="70" cy="39" r="2"/>
		<circle style="fill-rule:evenodd;clip-rule:evenodd;fill:#009294;" cx="29" cy="30" r="1"/>
		<circle style="fill-rule:evenodd;clip-rule:evenodd;fill:#009294;" cx="44" cy="11" r="1"/>
		<circle style="fill-rule:evenodd;clip-rule:evenodd;fill:#009294;" cx="68" cy="17" r="1"/>
		<circle style="fill-rule:evenodd;clip-rule:evenodd;fill:#009294;" cx="92" cy="32" r="1"/>
		<circle style="fill-rule:evenodd;clip-rule:evenodd;fill:#009294;" cx="85" cy="55" r="1"/>
		<circle style="fill-rule:evenodd;clip-rule:evenodd;fill:#009294;" cx="72" cy="79" r="1"/>
		<circle style="fill-rule:evenodd;clip-rule:evenodd;fill:#009294;" cx="41" cy="75" r="1"/>
		<circle style="fill-rule:evenodd;clip-rule:evenodd;fill:#009294;" cx="21" cy="63" r="1"/>
		<circle style="fill-rule:evenodd;clip-rule:evenodd;fill:#009294;" cx="8" cy="72" r="1"/>
		<circle style="fill-rule:evenodd;clip-rule:evenodd;fill:#009294;" cx="8" cy="26" r="1"/>
		<circle style="fill-rule:evenodd;clip-rule:evenodd;fill:#009294;" cx="53" cy="42" r="1"/>
		<circle style="fill-rule:evenodd;clip-rule:evenodd;fill:#009294;" cx="34" cy="90" r="1"/>
		<circle style="fill-rule:evenodd;clip-rule:evenodd;fill:#009294;" cx="90" cy="69" r="1"/>
		<path style="fill-rule:evenodd;clip-rule:evenodd;fill:#007376;" d="M0,96.053c34,2.947,67.5,1.948,100,0V100H0
			C0,98.684,0,97.368,0,96.053z"/>
		<g>
			<path style="fill-rule:evenodd;clip-rule:evenodd;fill:#007060;" d="M24.311,39.464c19.693-7.412,28.901,21.622,23.236,32.875
				l-3.141,0.126C44.321,61.423,19.613,39.86,19.419,39.721C19.016,38.477,21.899,36.964,24.311,39.464z"/>
			<path style="fill-rule:evenodd;clip-rule:evenodd;fill:#B2E0DF;" d="M19.397,39.68c21.092,7.929,28.76,31.828,26.522,32.454
				l-1.328-0.171C38.907,57.844,28.207,49.223,19.397,39.68z"/>
			<path style="fill-rule:evenodd;clip-rule:evenodd;fill:#007060;" d="M46.359,71.262c-5.427-2.871-9.723,6.227-9.723,6.227
				c2.605-1.74,7.114-1.441,9.094-2.94L46.359,71.262L46.359,71.262L46.359,71.262z M51.615,73.035
				c2.33,2.161,2.213,6.911,2.213,6.911s-5.776-3.526-6.647-3.942c-0.869-0.416-1.451-1.454-1.451-1.454l0.63-3.287l1.874,0.527
				C49.752,71.822,50.839,72.315,51.615,73.035z"/>
			<path style="fill-rule:evenodd;clip-rule:evenodd;fill:#007060;" d="M34.18,51.701c0,2.456,0.108,3.589-1.229,4.912
				c-1.842-1.229-4.248-7.937-3.684-8.596C29.428,46.887,32.642,49.367,34.18,51.701z"/>
			<path style="fill-rule:evenodd;clip-rule:evenodd;fill:#007060;" d="M42.776,46.788c8.597-0.614,11.053,6.14,11.053,6.14
				c-4.298-2.456-5.938-0.884-7.46,0.38L42.776,46.788z"/>
			
				<ellipse transform="matrix(0.7063 -0.7079 0.7079 0.7063 -20.9056 30.9182)" style="fill-rule:evenodd;clip-rule:evenodd;fill:#005F53;" cx="26.809" cy="40.654" rx="1.259" ry="1.195"/>
		</g>
		<g>
			<path style="fill-rule:evenodd;clip-rule:evenodd;fill:#007060;" d="M29.411,14.498c12.976-9.399,25.571,10.077,23.67,19.48
				l-2.282,0.723c-2.28-8.093-24.76-18.969-24.93-19.032C25.324,14.837,27.138,13.147,29.411,14.498z"/>
			<path style="fill-rule:evenodd;clip-rule:evenodd;fill:#B2E0DF;" d="M25.845,15.644c17.085,1.587,27.517,17.602,25.999,18.511
				l-1.01,0.141C43.824,25.067,34.234,20.884,25.845,15.644z"/>
			<path style="fill-rule:evenodd;clip-rule:evenodd;fill:#007060;" d="M51.993,33.426c-4.563-1.019-5.891,6.527-5.891,6.527
				c1.564-1.801,4.936-2.487,6.089-3.986L51.993,33.426L51.993,33.426L51.993,33.426z M56.21,33.673
				c2.145,1.119,3.013,4.632,3.013,4.632s-4.951-1.43-5.674-1.561c-0.722-0.131-1.358-0.776-1.358-0.776l-0.198-2.541l1.483,0.011
				C54.597,33.156,55.495,33.299,56.21,33.673z"/>
			<path style="fill-rule:evenodd;clip-rule:evenodd;fill:#007060;" d="M39.118,21.504c0.493,1.804,0.801,2.615,0.085,3.855
				c-1.6-0.532-4.714-4.977-4.433-5.574C34.661,18.923,37.52,20.099,39.118,21.504z"/>
			<path style="fill-rule:evenodd;clip-rule:evenodd;fill:#007060;" d="M44.445,16.17c6.191-2.177,9.352,2.29,9.352,2.29
				c-3.651-0.941-4.539,0.543-5.403,1.778L44.445,16.17z"/>
			
				<ellipse transform="matrix(0.4946 -0.8691 0.8691 0.4946 2.9858 34.8776)" style="fill-rule:evenodd;clip-rule:evenodd;fill:#005F53;" cx="31.483" cy="14.871" rx="0.959" ry="0.91"/>
		</g>
		<g>
			<path style="fill-rule:evenodd;clip-rule:evenodd;fill:#007060;" d="M62.964,66.122c12.014-3.775,16.552,13.88,12.793,20.416
				l-1.881-0.029c0.316-6.601-13.733-20.306-13.844-20.395C59.833,65.357,61.606,64.549,62.964,66.122z"/>
			<path style="fill-rule:evenodd;clip-rule:evenodd;fill:#B2E0DF;" d="M60.021,66.089c12.34,5.438,16.129,19.973,14.771,20.273
				l-0.788-0.146C71.076,77.59,64.969,72.084,60.021,66.089z"/>
			<path style="fill-rule:evenodd;clip-rule:evenodd;fill:#007060;" d="M75.084,85.855c-3.148-1.896-6.017,3.398-6.017,3.398
				c1.615-0.953,4.299-0.625,5.532-1.455L75.084,85.855L75.084,85.855L75.084,85.855z M78.166,87.089
				c1.321,1.369,1.093,4.203,1.093,4.203s-3.334-2.299-3.841-2.576c-0.505-0.277-0.819-0.917-0.819-0.917l0.485-1.943l1.102,0.377
				C77.093,86.302,77.726,86.633,78.166,87.089z"/>
			<path style="fill-rule:evenodd;clip-rule:evenodd;fill:#007060;" d="M68.455,73.762c-0.082,1.468-0.054,2.149-0.897,2.895
				c-1.06-0.795-2.275-4.884-1.916-5.259C65.776,70.728,67.614,72.317,68.455,73.762z"/>
			<path style="fill-rule:evenodd;clip-rule:evenodd;fill:#007060;" d="M73.755,71.112c5.157-0.082,6.401,4.036,6.401,4.036
				c-2.487-1.61-3.519-0.725-4.47-0.02L73.755,71.112z"/>
			
				<ellipse transform="matrix(0.7445 -0.6677 0.6677 0.7445 -28.2088 60.1186)" style="fill-rule:evenodd;clip-rule:evenodd;fill:#005F53;" cx="64.435" cy="66.912" rx="0.753" ry="0.715"/>
		</g>
		<path style="fill-rule:evenodd;clip-rule:evenodd;fill:#009294;" d="M100,1.259c0-0.42,0-0.839,0-1.259C66.667,0,33.333,0,0,0
			c0,0.422,0,0.843,0,1.265c10.916,1.853,20.775,7.152,52.199,3.46C75.469,1.991,100,12.706,100,1.259z"/>
	</g>
</g>
<g id="Layer_1">
</g>
</svg>
