<?xml version="1.0" encoding="iso-8859-1"?>
<!-- Generator: Adobe Illustrator 19.1.1, SVG Export Plug-In . SVG Version: 6.00 Build 0)  -->
<svg version="1.1" xmlns="http://www.w3.org/2000/svg" xmlns:xlink="http://www.w3.org/1999/xlink" x="0px" y="0px"
	 viewBox="0 0 100 100" style="enable-background:new 0 0 100 100;" xml:space="preserve">
<g id="Layer_4">
	<g>
		<rect style="fill-rule:evenodd;clip-rule:evenodd;fill:#008889;" width="100" height="100"/>
		<g>
			<path style="fill-rule:evenodd;clip-rule:evenodd;fill:#846C55;" d="M65.497,38.471c-1.009,0.02-2.753,1.001-3.063,2.084
				c-0.31,1.083-1.084,3.211-1.819,3.947c-0.735,0.736-1.123,0.929-1.742,0.774c-0.619-0.155-1.2-0.232-1.355,0.31
				c-0.155,0.542,0.619,1.239,0.736,1.51c0.116,0.271,0.774,1.007,1.277,0.658c0.503-0.348,0.542-1.239,0.929-1.626
				c0.387-0.387,2.091-1.355,3.02-1.355c0.929,0,2.013,0.194,2.361,0.116c0,0-0.619,0.89-2.207,2.477
				c-1.587,1.587-3.716,4.916-2.981,7.316c0.735,2.4,2.826,3.871,4.297,4.568c1.471,0.697,2.516,2.206,2.206,2.942
				c-0.31,0.736-1.432,1.394-2.245,0.619c-0.813-0.774-0.58-1.897,0.116-1.858c0.697,0.038,0.813,0.852,0.387,1.2
				c0,0,0.898-0.262,0.697-1.277c-0.201-1.015-2.013-1.316-2.904-0.426c-1.206,1.15-0.882,4.641,2.289,5.02
				c3.019,0.503,4.647-2.326,3.679-4.726c-0.968-2.4-3.761-4.784-3.374-7.339c0.387-2.555,4.579-7.228,4.695-9.435
				C70.613,41.765,69.058,38.4,65.497,38.471z"/>
			<path style="fill-rule:evenodd;clip-rule:evenodd;fill:#8BB3A1;" d="M65.598,44.908H65.6H65.598L65.598,44.908L65.598,44.908
				L65.598,44.908z M65.834,44.899c0.547-0.049,1.882-0.345,2.204-2.042c0,0,0.668,1.394-0.9,3.049
				c-1.568,1.655-4.641,4.066-4.641,6.566c0,2.5,1.853,4.757,2.782,5.512c0.929,0.755,3.31,2.815,2.526,4.558
				c-0.747,1.662-3.651,1.831-3.408-0.779c0.015,0.337,0.172,0.724,0.514,1.05c0.813,0.774,1.936,0.116,2.245-0.619
				c0.31-0.736-0.736-2.245-2.206-2.942c-1.471-0.697-3.562-2.168-4.297-4.568c-0.735-2.4,1.394-5.729,2.981-7.316
				C65.128,45.873,65.764,44.997,65.834,44.899z"/>
			<ellipse style="fill-rule:evenodd;clip-rule:evenodd;fill:#FFFFFF;" cx="64.039" cy="41.971" rx="0.543" ry="0.5"/>
			<path style="fill-rule:evenodd;clip-rule:evenodd;fill:#889254;" d="M65.468,51.851c0.282-0.364,2.947-2.461,4.253-2.084
				c1.048,0.303,1.759,1.613,1.776,3.154v0.107c-0.004,0.347-0.042,0.705-0.121,1.065c-0.436,2.003-1.945,3.049-4.529,1.394
				C64.263,53.832,64.844,52.657,65.468,51.851z"/>
			<path style="fill-rule:evenodd;clip-rule:evenodd;fill:#889254;" d="M66.411,41.65c0,0,0.581,0.074,0.871-0.216
				c0.29-0.29,0.533-0.776,1.248-0.552c0.716,0.224,0.835,1.483,0.232,2.265c-0.603,0.782-1.132,0.348-1.48,0
				C66.934,42.799,65.918,42.505,66.411,41.65z"/>
		</g>
		<g>
			<path style="fill-rule:evenodd;clip-rule:evenodd;fill:#846C55;" d="M37.085,35.5c1.009,0.02,2.753,1.001,3.063,2.084
				c0.31,1.082,1.084,3.211,1.82,3.947c0.735,0.736,1.122,0.929,1.742,0.774c0.619-0.155,1.2-0.232,1.355,0.31
				c0.155,0.542-0.619,1.239-0.736,1.51c-0.116,0.271-0.774,1.007-1.277,0.658c-0.504-0.348-0.542-1.239-0.929-1.626
				c-0.387-0.387-2.091-1.355-3.02-1.355c-0.929,0-2.013,0.194-2.361,0.116c0,0,0.619,0.89,2.207,2.478
				c1.587,1.587,3.716,4.916,2.981,7.316c-0.736,2.4-2.826,3.871-4.297,4.568c-1.471,0.697-2.516,2.206-2.207,2.942
				c0.31,0.736,1.432,1.393,2.245,0.619c0.813-0.774,0.581-1.897-0.116-1.858c-0.697,0.038-0.813,0.852-0.387,1.2
				c0,0-0.898-0.262-0.697-1.277c0.201-1.015,2.013-1.316,2.903-0.426c1.206,1.15,0.882,4.641-2.289,5.02
				c-3.02,0.503-4.647-2.326-3.679-4.726c0.968-2.4,3.761-4.784,3.374-7.339c-0.387-2.555-4.579-7.228-4.695-9.435
				C31.969,38.794,33.524,35.428,37.085,35.5z"/>
			<path style="fill-rule:evenodd;clip-rule:evenodd;fill:#8BB3A1;" d="M36.984,41.937h-0.001H36.984L36.984,41.937L36.984,41.937
				L36.984,41.937z M36.748,41.928c-0.547-0.049-1.882-0.345-2.204-2.042c0,0-0.667,1.394,0.9,3.049
				c1.568,1.655,4.641,4.065,4.641,6.566c0,2.5-1.853,4.757-2.782,5.512c-0.929,0.755-3.31,2.815-2.526,4.558
				c0.747,1.662,3.651,1.831,3.408-0.78c-0.015,0.337-0.172,0.725-0.514,1.051c-0.813,0.774-1.936,0.116-2.245-0.619
				c-0.31-0.736,0.736-2.245,2.207-2.942c1.471-0.697,3.561-2.168,4.297-4.568c0.736-2.4-1.394-5.729-2.981-7.316
				C37.454,42.902,36.818,42.026,36.748,41.928z"/>
			<ellipse style="fill-rule:evenodd;clip-rule:evenodd;fill:#FFFFFF;" cx="38.542" cy="39" rx="0.543" ry="0.5"/>
			<path style="fill-rule:evenodd;clip-rule:evenodd;fill:#889254;" d="M37.114,48.88c-0.282-0.364-2.947-2.461-4.253-2.084
				c-1.048,0.303-1.759,1.613-1.776,3.154v0.107c0.004,0.347,0.042,0.705,0.121,1.065c0.436,2.004,1.945,3.049,4.529,1.394
				C38.319,50.861,37.738,49.686,37.114,48.88z"/>
			<path style="fill-rule:evenodd;clip-rule:evenodd;fill:#889254;" d="M36.171,38.679c0,0-0.581,0.074-0.871-0.216
				c-0.29-0.29-0.533-0.776-1.248-0.552c-0.716,0.225-0.835,1.483-0.232,2.265c0.603,0.781,1.132,0.348,1.481,0
				C35.648,39.828,36.664,39.534,36.171,38.679z"/>
		</g>
		<circle style="fill-rule:evenodd;clip-rule:evenodd;fill:#009294;" cx="68" cy="22" r="1"/>
		<circle style="fill-rule:evenodd;clip-rule:evenodd;fill:#009294;" cx="44" cy="73" r="1"/>
		<circle style="fill-rule:evenodd;clip-rule:evenodd;fill:#009294;" cx="10" cy="61" r="1"/>
		<circle style="fill-rule:evenodd;clip-rule:evenodd;fill:#009294;" cx="75" cy="44" r="1"/>
		<circle style="fill-rule:evenodd;clip-rule:evenodd;fill:#009294;" cx="49" cy="14" r="1"/>
		<circle style="fill-rule:evenodd;clip-rule:evenodd;fill:#009294;" cx="11" cy="23" r="1"/>
		<circle style="fill-rule:evenodd;clip-rule:evenodd;fill:#009294;" cx="89" cy="85" r="1"/>
		<circle style="fill-rule:evenodd;clip-rule:evenodd;fill:#009294;" cx="88" cy="34" r="1"/>
		<circle style="fill-rule:evenodd;clip-rule:evenodd;fill:#009294;" cx="48" cy="41" r="1"/>
		<path style="fill-rule:evenodd;clip-rule:evenodd;fill:#009294;" d="M19,19c1.652,0,3-1.348,3-3s-1.348-3-3-3s-3,1.348-3,3
			S17.348,19,19,19z"/>
		<path style="fill-rule:evenodd;clip-rule:evenodd;fill:#009294;" d="M41,26c1.102,0,2-0.898,2-2c0-1.102-0.898-2-2-2s-2,0.898-2,2
			C39,25.101,39.898,26,41,26z"/>
		<path style="fill-rule:evenodd;clip-rule:evenodd;fill:#009294;" d="M24,42c1.652,0,3-1.348,3-3c0-1.652-1.348-3-3-3
			c-1.653,0-3,1.348-3,3C21,40.652,22.348,42,24,42z"/>
		<path style="fill-rule:evenodd;clip-rule:evenodd;fill:#009294;" d="M54,53c1.652,0,3-1.348,3-3c0-1.652-1.348-3-3-3
			c-1.652,0-3,1.348-3,3C51,51.652,52.348,53,54,53z"/>
		<circle style="fill-rule:evenodd;clip-rule:evenodd;fill:#009294;" cx="27" cy="55" r="2"/>
		<circle style="fill-rule:evenodd;clip-rule:evenodd;fill:#009294;" cx="84" cy="17" r="2"/>
		<circle style="fill-rule:evenodd;clip-rule:evenodd;fill:#009294;" cx="83" cy="63" r="2"/>
		<path style="fill-rule:evenodd;clip-rule:evenodd;fill:#009294;" d="M69,77c1.653,0,3-1.348,3-3c0-1.652-1.348-3-3-3
			c-1.653,0-3,1.348-3,3C66,75.652,67.348,77,69,77z"/>
		<path style="fill-rule:evenodd;clip-rule:evenodd;fill:#009294;" d="M12,87.001c2.203,0,4-1.797,4-4s-1.797-4-4-4
			c-2.203,0-4,1.797-4,4S9.797,87.001,12,87.001z"/>
		<path style="fill-rule:evenodd;clip-rule:evenodd;fill:#007376;" d="M0,96.053c47-18.052,66.667,0,100,0V100H0
			C0,98.684,0,97.368,0,96.053z"/>
		<path style="fill-rule:evenodd;clip-rule:evenodd;fill:#009294;" d="M100,1.265c0-0.422,0-0.844,0-1.265C66.667,0,33.333,0,0,0
			c0,0.416,0,0.831,0,1.247C22.407,22.55,74.721,1.236,100,1.265z"/>
	</g>
</g>
<g id="Layer_1">
</g>
</svg>
