<?xml version="1.0" encoding="iso-8859-1"?>
<!-- Generator: Adobe Illustrator 19.1.1, SVG Export Plug-In . SVG Version: 6.00 Build 0)  -->
<svg version="1.1" xmlns="http://www.w3.org/2000/svg" xmlns:xlink="http://www.w3.org/1999/xlink" x="0px" y="0px"
	 viewBox="0 0 100 100" style="enable-background:new 0 0 100 100;" xml:space="preserve">
<g id="Layer_8">
	<g>
		<g>
			<path style="fill-rule:evenodd;clip-rule:evenodd;fill:#88D2DB;" d="M100,5.119V26.5H0V6.191C2.426,7.924,5.301,8.961,8,9
				c5.818,0.084,12.013-5.274,17.54-5.962C31.791,2.26,35.421,8,45,8c9.509,0,8-8,16-8c7,0,9.354,9.338,16.072,9.089
				c3.221-0.119,6.41-1.678,6.54-2.584c1.59-0.221,2.983-3.847,6.564-0.861C92.277,7.397,96.794,7.264,100,5.119z"/>
			<path style="fill-rule:evenodd;clip-rule:evenodd;fill:#6ECBD4;" d="M100,10.369c0,5.295,0,10.59,0,15.884
				c-33.334,0-66.667,0-100,0c0-4.937,0-9.874,0-14.812c2.426,1.733,5.301,2.771,8,2.809c5.818,0.084,12.013-5.274,17.54-5.962
				C31.791,7.51,35.421,13.25,45,13.25c9.509,0,8.031-7.004,16-7.5c6.873-0.422,9.354,8.838,16.072,8.59
				c3.221-0.119,6.41-1.678,6.54-2.584c1.59-0.221,2.983-3.847,6.564-0.861C92.277,12.647,96.794,12.514,100,10.369z"/>
			<path style="fill-rule:evenodd;clip-rule:evenodd;fill:#57C5CC;" d="M100,15.619v10.387l-100,0v-9.315
				c2.426,1.733,5.301,2.771,8,2.809c5.818,0.084,12.013-5.274,17.54-5.962C31.791,12.76,35.421,18.5,45,18.5
				c9.509,0,8.062-6.007,16-7c6.747-0.844,9.354,8.339,16.072,8.09c3.221-0.119,6.41-1.678,6.54-2.584
				c1.59-0.221,2.983-3.847,6.564-0.861C92.277,17.897,96.794,17.764,100,15.619z"/>
		</g>
		<g>
			<path style="fill-rule:evenodd;clip-rule:evenodd;fill:#00BABE;" d="M5.602,13.217c1.828-3.306,7.347,0.591,16.125-4.25
				C9.522,18.394,8.933,8.892,5.602,13.217z"/>
			<path style="fill-rule:evenodd;clip-rule:evenodd;fill:#88D2DB;" d="M30.102,13.717c8.038-2.084,10.256,1.748,20.513-1.616
				c3.191-1.047,4.446-1.415,7.862-1.259c-3.279,0.149-4.61,0.629-7.53,2.049C37.581,19.389,42.432,11.725,30.102,13.717z"/>
			<path style="fill-rule:evenodd;clip-rule:evenodd;fill:#88D2DB;" d="M67.352,14.467c12.358,1.128,1.345,1.837,14.623-1.503
				c2.836-0.714,7.018-2.58,9.627-0.247c-2.653-1.914-6.699,0.192-9.087,1.53C74.512,18.729,74.184,15.837,67.352,14.467z"/>
			<path style="fill-rule:evenodd;clip-rule:evenodd;fill:#BBE4EB;" d="M56.352,6.216c2.502-4.543,7.346-2.004,10.625,0.375
				l-0.246-0.105C60.937,6.143,59.22,3.036,56.352,6.216z"/>
			<path style="fill-rule:evenodd;clip-rule:evenodd;fill:#00A4A6;" d="M30.352,16.716c3.44,0.265,6.271,1.75,7.375,1.375
				C34.789,20.436,32.255,17.651,30.352,16.716z"/>
			<path style="fill-rule:evenodd;clip-rule:evenodd;fill:#BBE4EB;" d="M25.977,6.341c0.054,0.007,6.973,0.375,7.125,0.375
				c-2.482,1.117-1.293,0.54-3.575,1.719C27.225,7.133,28.41,7.828,25.977,6.341z"/>
			<path style="fill-rule:evenodd;clip-rule:evenodd;fill:#00A4A6;" d="M17.352,14.842c1.625-1.224,2.335-1.802,4.085-2.776
				c1.952,0.871,2.114,1.369,4.29,1.901c-1.738,0.137-3.049-0.354-4.13,0.333C19.756,13.805,19.294,14.233,17.352,14.842z"/>
			<path style="fill-rule:evenodd;clip-rule:evenodd;fill:#00A4A6;" d="M56.602,14.217c4.462-2.604,5.121-1.273,8.532,1.514
				l-0.005-0.003c0.232,0.16,0.116,0.08,0.349,0.239C63.099,15.177,58.982,13.649,56.602,14.217z"/>
			<path style="fill-rule:evenodd;clip-rule:evenodd;fill:#00BABE;" d="M62.727,8.592c6.029-0.284,5.4,1.706,10.875,2.5
				c-0.265,0.024-0.133,0.012-0.398,0.036l0.004,0C64.615,12.186,69.068,9.894,62.727,8.592z"/>
			<path style="fill-rule:evenodd;clip-rule:evenodd;fill:#BBE4EB;" d="M85.602,8.217c0.628-1.186,1.052-1.314,2.204-2.028
				c1.357,0.556,1.624,0.856,2.796,1.653c-1.288-0.11-1.546-0.124-2.786,0.316C86.835,7.605,86.6,7.554,85.602,8.217z"/>
			<path style="fill-rule:evenodd;clip-rule:evenodd;fill:#00BABE;" d="M95.602,10.217c0.782-0.45,3.006-1.531,4.125-1.25
				C98.094,9.547,99.878,11.306,95.602,10.217z"/>
			<path style="fill-rule:evenodd;clip-rule:evenodd;fill:#00BABE;" d="M0.352,10.217c4.187-0.694,2.99,2.031,4.75,2.625
				C2.484,13.233,2.01,10.762,0.352,10.217z"/>
			<path style="fill-rule:evenodd;clip-rule:evenodd;fill:#BBE4EB;" d="M8.352,16.842c1.659-0.505,0.892-0.111,2.29-1.198
				c1.425,0.92,0.646,0.69,2.335,0.698c-1.489,1.098-0.742,0.511-2.233,1.766C9.208,17.028,10.012,17.436,8.352,16.842z"/>
			<path style="fill-rule:evenodd;clip-rule:evenodd;fill:#BBE4EB;" d="M69.977,19.342c0.667-0.126,2.597-0.227,2.878-0.647
				c1.261,0.815,1.218,0.054,2.747,0.147c-0.275,0.113-0.138,0.056-0.412,0.172l0.032-0.011c-0.618,0.562-1.635,1.761-2.531,1.866
				C71.413,19.859,71.664,19.859,69.977,19.342z"/>
			<path style="fill-rule:evenodd;clip-rule:evenodd;fill:#00BABE;" d="M38.852,9.342c1.331,0.878,6.461,0.841,8.75,1.125
				C44.253,11.15,41.819,12.932,38.852,9.342z"/>
			<path style="fill-rule:evenodd;clip-rule:evenodd;fill:#00A4A6;" d="M94.602,13.717c3.217-0.194,1.95-0.169,4.875,1.25
				C95.388,15.654,97.332,15.2,94.602,13.717z"/>
			<path style="fill-rule:evenodd;clip-rule:evenodd;fill:#00A4A6;" d="M0.102,15.467c2.142-0.941,3.008-1.168,5.25-1
				C2.292,15.871,5.383,17.019,0.102,15.467z"/>
			<path style="fill-rule:evenodd;clip-rule:evenodd;fill:#00BABE;" d="M23.102,8.967c2.071-1.915,5.198,1.831,12.487-0.213
				c0.194-0.054,0.193-0.041,0.388-0.037c-0.185,0.033-0.188,0.02-0.36,0.107C24.625,14.427,27.011,6.557,23.102,8.967z"/>
			<path style="fill-rule:evenodd;clip-rule:evenodd;fill:#00BABE;" d="M52.477,8.592c2.538-1.409,1.271-0.638,3.791-2.327
				c1.68,0.656,2.54,0.742,4.209,1.577c-1.878-0.233-2.353-0.298-3.845,0.843C53.869,8.184,55.255,8.215,52.477,8.592z"/>
		</g>
		<g>
			<path style="fill-rule:evenodd;clip-rule:evenodd;fill:#88D2DB;" d="M0,26.002l100-0.007v-6.411c-2.611-2.196-5.92-3.541-9-3.585
				c-5.818-0.084-12.013,5.274-17.54,5.962C67.209,22.74,63.579,17,54,17c-9.508,0-8.062,6.007-16,7
				c-6.747,0.844-9.354-8.339-16.072-8.09c-3.221,0.119-6.41,1.678-6.54,2.584c-1.59,0.221-2.983,3.847-6.564,0.861
				C6.979,17.817,3.138,17.81,0,19.319V26.002z"/>
			<path style="fill-rule:evenodd;clip-rule:evenodd;fill:#39C0C3;" d="M0,45.083l100-0.007V20.68c-2.611-2.196-5.92-3.541-9-3.585
				c-5.818-0.084-12.013,5.274-17.54,5.962c-6.25,0.778-9.881-4.962-19.46-4.962c-9.508,0-8.062,6.008-16,7
				c-6.747,0.844-9.354-8.339-16.072-8.09c-3.221,0.119-6.41,1.678-6.54,2.584c-1.59,0.221-2.983,3.847-6.564,0.861
				C6.979,18.911,3.138,18.905,0,20.414V45.083z"/>
			<path style="fill-rule:evenodd;clip-rule:evenodd;fill:#00B4B6;" d="M0,63.406L100,63.4V39.346c-2.611-2.196-5.92-3.541-9-3.585
				c-5.818-0.084-12.013,5.274-17.54,5.962c-6.25,0.778-9.881-4.962-19.46-4.962c-9.508,0-8.062,6.007-16,7
				c-6.747,0.844-9.354-8.339-16.072-8.09c-3.221,0.119-6.41,1.678-6.54,2.584c-1.59,0.221-2.983,3.847-6.564,0.861
				C6.979,37.578,3.138,37.572,0,39.081V63.406z"/>
			<path style="fill-rule:evenodd;clip-rule:evenodd;fill:#00A4A6;" d="M0,81.729l100-0.007v-23.71c-2.611-2.196-5.92-3.541-9-3.585
				c-5.818-0.084-12.013,5.274-17.54,5.962c-6.25,0.778-9.881-4.962-19.46-4.962c-9.508,0-8.062,6.007-16,7
				c-6.747,0.844-9.354-8.339-16.072-8.09c-3.221,0.119-6.41,1.678-6.54,2.584c-1.59,0.221-2.983,3.847-6.564,0.861
				C6.979,56.245,3.138,56.238,0,57.748V81.729z"/>
			<path style="fill-rule:evenodd;clip-rule:evenodd;fill:#009294;" d="M100,76.68c-2.611-2.196-5.92-3.541-9-3.585
				c-5.818-0.084-12.013,5.274-17.54,5.962c-6.25,0.778-9.881-4.962-19.46-4.962c-9.508,0-8.062,6.007-16,7
				c-6.747,0.844-9.354-8.339-16.072-8.09c-3.221,0.119-6.41,1.678-6.54,2.584c-1.59,0.221-2.983,3.847-6.564,0.861
				C6.979,74.911,3.138,74.905,0,76.414V100h100V76.68z"/>
		</g>
		<g>
			<circle style="opacity:0.4392;fill-rule:evenodd;clip-rule:evenodd;fill:#BBE4EB;" cx="68.962" cy="48" r="2.961"/>
			<path style="opacity:0.8392;fill-rule:evenodd;clip-rule:evenodd;fill:#EFF8F5;" d="M68.962,45.039
				c1.635,0,2.961,1.326,2.961,2.961c0,1.051-0.548,1.974-1.373,2.499c0.288-0.457,0.455-0.997,0.455-1.577
				c0-1.635-1.326-2.961-2.961-2.961c-0.584,0-1.129,0.169-1.588,0.462C66.98,45.591,67.906,45.039,68.962,45.039z"/>
		</g>
		<g>
			<circle style="opacity:0.4392;fill-rule:evenodd;clip-rule:evenodd;fill:#BBE4EB;" cx="8" cy="47" r="3"/>
			<path style="opacity:0.8392;fill-rule:evenodd;clip-rule:evenodd;fill:#EFF8F5;" d="M8,44c1.657,0,3,1.343,3,3
				c0,1.085-0.576,2.035-1.438,2.562C9.84,49.107,10,48.572,10,48c0-1.657-1.343-3-3-3c-0.572,0-1.107,0.16-1.562,0.438
				C5.965,44.575,6.915,44,8,44z"/>
		</g>
		<g>
			
				<circle style="opacity:0.4392;fill-rule:evenodd;clip-rule:evenodd;fill:#BBE4EB;stroke:#57C5CC;stroke-width:1.11;stroke-miterlimit:22.9256;" cx="52.5" cy="90" r="2"/>
			<path style="opacity:0.8392;fill-rule:evenodd;clip-rule:evenodd;fill:#EFF8F5;" d="M52.5,88c1.104,0,2,0.896,2,2
				c0,0.811-0.483,1.509-1.176,1.823C53.437,91.572,53.5,91.293,53.5,91c0-1.104-0.896-2-2-2c-0.294,0-0.572,0.063-0.823,0.177
				C50.991,88.483,51.689,88,52.5,88z"/>
		</g>
		<g>
			<circle style="opacity:0.4392;fill-rule:evenodd;clip-rule:evenodd;fill:#BBE4EB;" cx="88" cy="65" r="2"/>
			<path style="opacity:0.8392;fill-rule:evenodd;clip-rule:evenodd;fill:#EFF8F5;" d="M88,63c1.104,0,2,0.895,2,2
				c0,0.811-0.483,1.509-1.176,1.823C88.937,66.572,89,66.293,89,66c0-1.104-0.896-2-2-2c-0.294,0-0.572,0.063-0.823,0.177
				C86.49,63.483,87.189,63,88,63z"/>
		</g>
		<g>
			<circle style="opacity:0.4392;fill-rule:evenodd;clip-rule:evenodd;fill:#BBE4EB;" cx="18" cy="83" r="2"/>
			<path style="opacity:0.8392;fill-rule:evenodd;clip-rule:evenodd;fill:#EFF8F5;" d="M18,81c1.105,0,2,0.896,2,2
				c0,0.811-0.483,1.51-1.177,1.824C18.937,84.572,19,84.294,19,84c0-1.105-0.896-2-2-2c-0.293,0-0.572,0.063-0.823,0.177
				C16.491,81.482,17.19,81,18,81z"/>
		</g>
		<g>
			<circle style="opacity:0.4392;fill-rule:evenodd;clip-rule:evenodd;fill:#BBE4EB;" cx="27.96" cy="30.959" r="2.959"/>
			<path style="opacity:0.8392;fill-rule:evenodd;clip-rule:evenodd;fill:#EFF8F5;" d="M27.96,28c1.635,0,2.959,1.325,2.959,2.959
				c0,1.108-0.609,2.074-1.51,2.581c0.322-0.474,0.51-1.046,0.51-1.662c0-1.634-1.325-2.959-2.959-2.959
				c-0.527,0-1.021,0.137-1.449,0.379C26.043,28.514,26.941,28,27.96,28z"/>
		</g>
		<g>
			<circle style="opacity:0.4392;fill-rule:evenodd;clip-rule:evenodd;fill:#BBE4EB;" cx="84" cy="29.914" r="2"/>
			<path style="opacity:0.8392;fill-rule:evenodd;clip-rule:evenodd;fill:#EFF8F5;" d="M84,27.914c1.104,0,2,0.895,2,2
				c0,0.811-0.483,1.509-1.176,1.823c0.113-0.251,0.177-0.529,0.177-0.823c0-1.104-0.896-2-2-2c-0.294,0-0.572,0.063-0.823,0.177
				C82.491,28.397,83.189,27.914,84,27.914z"/>
		</g>
		<g>
			<circle style="opacity:0.4392;fill-rule:evenodd;clip-rule:evenodd;fill:#BBE4EB;" cx="73.001" cy="87" r="2"/>
			<path style="opacity:0.8392;fill-rule:evenodd;clip-rule:evenodd;fill:#EFF8F5;" d="M73.001,85c1.104,0,2,0.895,2,2
				c0,0.811-0.483,1.509-1.176,1.823c0.113-0.251,0.177-0.53,0.177-0.823c0-1.104-0.895-2-2-2c-0.294,0-0.572,0.063-0.824,0.177
				C71.491,85.483,72.19,85,73.001,85z"/>
		</g>
		<g>
			<g>
				<g>
					<path style="fill-rule:evenodd;clip-rule:evenodd;fill:#006F72;" d="M52.262,51.361c0.902,0,1.637-0.761,1.637-1.696
						c0-0.936-0.734-1.696-1.637-1.696c-0.903,0-1.636,0.761-1.636,1.696C50.625,50.6,51.358,51.361,52.262,51.361L52.262,51.361
						L52.262,51.361z M52.262,48.73c0.497,0,0.901,0.419,0.901,0.935c0,0.515-0.405,0.935-0.901,0.935
						c-0.497,0-0.902-0.42-0.902-0.935C51.36,49.149,51.764,48.73,52.262,48.73z"/>
					<path style="fill-rule:evenodd;clip-rule:evenodd;fill:#006F72;" d="M33.897,57.868c-0.902,0-1.637,0.761-1.637,1.697
						c0,0.935,0.734,1.697,1.637,1.697c0.902,0,1.636-0.761,1.636-1.697C35.534,58.629,34.799,57.868,33.897,57.868L33.897,57.868
						L33.897,57.868z M33.897,60.5c-0.497,0-0.901-0.42-0.901-0.935c0-0.516,0.404-0.936,0.901-0.936
						c0.497,0,0.901,0.42,0.901,0.936C34.799,60.08,34.394,60.5,33.897,60.5z"/>
					<path style="fill-rule:evenodd;clip-rule:evenodd;fill:#006F72;" d="M48.953,47.13c0.73,0,1.322-0.614,1.322-1.369
						c0-0.754-0.592-1.369-1.322-1.369c-0.728,0-1.32,0.614-1.32,1.369C47.634,46.517,48.225,47.13,48.953,47.13L48.953,47.13
						L48.953,47.13z M48.953,45.154c0.324,0,0.586,0.273,0.586,0.607c0,0.335-0.264,0.607-0.586,0.607
						c-0.323,0-0.583-0.273-0.583-0.607C48.368,45.428,48.63,45.154,48.953,45.154z"/>
					<path style="fill-rule:evenodd;clip-rule:evenodd;fill:#006F72;" d="M53.36,44.846c0.729,0,1.321-0.614,1.321-1.369
						c0-0.755-0.593-1.369-1.321-1.369c-0.728,0-1.321,0.614-1.321,1.369C52.041,44.232,52.632,44.846,53.36,44.846L53.36,44.846
						L53.36,44.846z M53.36,42.87c0.324,0,0.585,0.273,0.585,0.607c0,0.334-0.263,0.607-0.585,0.607
						c-0.323,0-0.584-0.272-0.584-0.607C52.776,43.143,53.037,42.87,53.36,42.87z"/>
					<path style="fill-rule:evenodd;clip-rule:evenodd;fill:#006F72;" d="M30.59,55.507c0.728,0,1.321-0.614,1.321-1.369
						c0-0.754-0.593-1.369-1.321-1.369s-1.32,0.614-1.32,1.369C29.269,54.894,29.861,55.507,30.59,55.507L30.59,55.507L30.59,55.507
						z M30.59,53.532c0.323,0,0.586,0.272,0.586,0.607c0,0.335-0.263,0.607-0.586,0.607c-0.323,0-0.585-0.272-0.585-0.607
						C30.003,53.804,30.266,53.532,30.59,53.532z"/>
					<path style="fill-rule:evenodd;clip-rule:evenodd;fill:#006F72;" d="M34.263,48.962c-0.728,0-1.319,0.614-1.319,1.369
						c0,0.755,0.591,1.369,1.319,1.369c0.729,0,1.321-0.614,1.321-1.369C35.582,49.577,34.99,48.962,34.263,48.962L34.263,48.962
						L34.263,48.962z M34.263,50.938c-0.323,0-0.585-0.273-0.585-0.607c0-0.334,0.263-0.607,0.585-0.607
						c0.323,0,0.586,0.273,0.586,0.607C34.848,50.665,34.584,50.938,34.263,50.938z"/>
					<path style="fill-rule:evenodd;clip-rule:evenodd;fill:#006F72;" d="M31.325,47.892c0.728,0,1.321-0.614,1.321-1.369
						c0-0.755-0.592-1.369-1.321-1.369c-0.728,0-1.32,0.614-1.32,1.369C30.004,47.279,30.596,47.892,31.325,47.892L31.325,47.892
						L31.325,47.892z M31.325,45.917c0.323,0,0.586,0.272,0.586,0.607c0,0.334-0.263,0.607-0.586,0.607s-0.585-0.273-0.585-0.607
						C30.737,46.189,31.001,45.917,31.325,45.917z"/>
					<path style="fill-rule:evenodd;clip-rule:evenodd;fill:#006F72;" d="M35.806,61.474l-0.001,0.001
						c-0.016,0.016-0.017,0.045-0.004,0.062c0.015,0.017,0.041,0.023,0.06,0.012c1.35-0.835,3.125-0.651,4.287,0.555
						c1.163,1.204,1.34,3.044,0.535,4.442c-0.014,0.019-0.007,0.047,0.011,0.06c0.018,0.017,0.045,0.015,0.061-0.003
						c2.315-2.402,3.085-5.496,1.719-6.913C41.109,58.275,38.123,59.074,35.806,61.474z"/>
					<path style="fill-rule:evenodd;clip-rule:evenodd;fill:#006F72;" d="M43.633,73.764c-0.039,0.041-0.077,0.081-0.113,0.121
						c-0.008,0.008-0.008,0.017-0.001,0.026c0.007,0.007,0.016,0.01,0.024,0.003c1.126-0.789,2.669-0.664,3.665,0.368
						c0.956,0.991,1.103,2.507,0.439,3.658c-0.011,0.017-0.007,0.039,0.01,0.05c0.016,0.012,0.037,0.011,0.048-0.005
						c0.001,0,0.002,0,0.003-0.001c1.905-1.976,2.539-4.522,1.416-5.688C47.996,71.131,45.54,71.788,43.633,73.764z"/>
					<path style="fill-rule:evenodd;clip-rule:evenodd;fill:#006F72;" d="M46.382,64.54c0.196,0.061,0.408-0.013,0.53-0.18
						l3.975-5.474c0.655-0.903,0.572-2.169-0.2-2.967c-0.384-0.397-0.301-2.057-0.176-3.3c0.035-0.34-0.08-0.68-0.316-0.924
						c-0.234-0.243-0.561-0.363-0.89-0.328c-1.203,0.127-2.807,0.211-3.19-0.188c-0.77-0.799-1.99-0.887-2.86-0.207l-5.281,4.12
						c-0.164,0.128-0.234,0.347-0.174,0.55c0.058,0.202,0.232,0.347,0.436,0.361c1.601,0.112,3.516,1.085,5.134,2.761
						c1.617,1.676,2.555,3.662,2.664,5.323C46.046,64.298,46.185,64.479,46.382,64.54L46.382,64.54L46.382,64.54z M45.269,54.489
						c-0.35-0.361-0.35-0.947-0.001-1.308s0.914-0.361,1.261,0c0.349,0.361,0.349,0.947,0.001,1.308
						C46.182,54.849,45.617,54.849,45.269,54.489z"/>
					<path style="fill-rule:evenodd;clip-rule:evenodd;fill:#006F72;" d="M55.88,69.189c-0.316-0.327-0.247-1.693-0.143-2.716
						c0.027-0.281-0.069-0.56-0.262-0.76c-0.192-0.201-0.462-0.3-0.733-0.271c-0.989,0.105-2.31,0.173-2.624-0.154
						c-0.637-0.659-1.641-0.729-2.358-0.171l-4.345,3.39c-0.134,0.106-0.191,0.286-0.142,0.454c0.046,0.167,0.191,0.286,0.359,0.298
						c1.317,0.092,2.894,0.893,4.226,2.274c1.331,1.378,2.105,3.015,2.193,4.38c0.012,0.175,0.125,0.322,0.287,0.372
						c0.162,0.048,0.335-0.01,0.437-0.15l3.27-4.505C56.583,70.888,56.514,69.847,55.88,69.189L55.88,69.189L55.88,69.189z
						 M52.458,68.015c-0.288,0.297-0.752,0.296-1.039,0c-0.287-0.299-0.287-0.78,0-1.077c0.287-0.298,0.751-0.298,1.038,0
						C52.746,67.235,52.746,67.717,52.458,68.015z"/>
					<path style="fill-rule:evenodd;clip-rule:evenodd;fill:#006F72;" d="M33.056,62.714c0.024-0.243-0.058-0.483-0.224-0.656
						c-0.167-0.174-0.399-0.258-0.633-0.233c-0.854,0.088-1.994,0.148-2.267-0.134c-0.547-0.567-1.416-0.631-2.034-0.146
						l-3.753,2.93c-0.116,0.089-0.166,0.245-0.124,0.389c0.041,0.146,0.165,0.247,0.31,0.258c1.138,0.08,2.5,0.772,3.649,1.961
						c1.15,1.191,1.817,2.604,1.893,3.784c0.01,0.149,0.109,0.278,0.248,0.322c0.139,0.043,0.289-0.01,0.377-0.129l2.826-3.891
						c0.465-0.642,0.405-1.541-0.142-2.11C32.909,64.777,32.969,63.598,33.056,62.714L33.056,62.714L33.056,62.714z M30.228,64.046
						c-0.248,0.257-0.65,0.257-0.897,0c-0.247-0.258-0.247-0.674,0-0.929c0.247-0.256,0.649-0.256,0.896,0
						C30.474,63.372,30.474,63.787,30.228,64.046z"/>
					<path style="fill-rule:evenodd;clip-rule:evenodd;fill:#006F72;" d="M22.604,69.011c-0.034,0.035-0.067,0.071-0.099,0.106
						c-0.006,0.006-0.007,0.016-0.001,0.021c0.005,0.008,0.014,0.009,0.021,0.003c0.972-0.68,2.303-0.575,3.165,0.318
						c0.827,0.857,0.953,2.163,0.38,3.159c-0.008,0.016-0.005,0.033,0.008,0.045c0.014,0.009,0.031,0.009,0.044-0.004
						c1.645-1.706,2.193-3.907,1.223-4.914C26.373,66.737,24.251,67.304,22.604,69.011z"/>
				</g>
			</g>
		</g>
	</g>
</g>
<g id="Layer_1">
</g>
</svg>
