<?xml version="1.0" encoding="iso-8859-1"?>
<!-- Generator: Adobe Illustrator 19.1.1, SVG Export Plug-In . SVG Version: 6.00 Build 0)  -->
<svg version="1.1" xmlns="http://www.w3.org/2000/svg" xmlns:xlink="http://www.w3.org/1999/xlink" x="0px" y="0px"
	 viewBox="0 0 100 99.999" style="enable-background:new 0 0 100 99.999;" xml:space="preserve">
<g id="Layer_5">
	<g>
		<rect x="-102.594" y="200.176" style="fill-rule:evenodd;clip-rule:evenodd;fill:#007376;" width="99.999" height="99.999"/>
		<path style="fill-rule:evenodd;clip-rule:evenodd;fill:#006A6C;" d="M-102.594,231.169c3-6.993,15.5-10.493,28-5.993
			c14.5,7.5,18.313,15.002,30,15.002c15-0.002,22-39.002,41.999-13.007v33.005h-99.999
			C-102.594,246.843-102.594,244.502-102.594,231.169z"/>
		<path style="fill-rule:evenodd;clip-rule:evenodd;fill:#006063;" d="M-102.594,251.169c3-6.993,15.5-10.493,28-5.993
			c14.5,7.5,18.313,15.002,30,15.002c15-0.002,22-39.002,41.999-13.007v33.005h-99.999
			C-102.594,266.843-102.594,264.503-102.594,251.169z"/>
		<g>
			<path style="fill-rule:evenodd;clip-rule:evenodd;fill:#EF456D;" d="M-50.794,227.176c-0.463,0.896-0.686,2.028-0.545,2.973
				c0.153,1.025,0.576,2.999,0.472,4.025c-0.717-0.92-2.84-6.084-3.07-7.46c-0.753-4.509,7.143-4.038,9.143-3.538
				C-45.794,224.676-49.902,225.451-50.794,227.176z"/>
			<path style="fill-rule:evenodd;clip-rule:evenodd;fill:#EF456D;" d="M-53.683,210.226c-0.001,2.507,0.907,6.714,1.889,8.951
				c2.5,1,6.335,2.563,8,2.906c-0.802,0.028-11.572,1.333-12,1.094C-57.162,222.411-54.564,211.107-53.683,210.226z"/>
			<path style="fill-rule:evenodd;clip-rule:evenodd;fill:#EF456D;" d="M-67.95,214.08c1.328,0.661,6.228,3.107,7.156,3.097
				c2.447-0.028,2.882-4.85,4-7c0,4.5,0.331,9.906-2,11C-60.18,221.827-66.44,217.685-67.95,214.08z"/>
			<path style="fill-rule:evenodd;clip-rule:evenodd;fill:#EF456D;" d="M-65.794,232.176c2.806-0.86,4.904-1.042,6-1
				c3.496,0.133,3.118,0.698,5.101,2.098C-56.666,226.505-62.277,227.462-65.794,232.176z"/>
			<path style="fill-rule:evenodd;clip-rule:evenodd;fill:#EF456D;" d="M-62.294,224.177c-0.021,0.2-1.854,9.816-7.671,9.089
				c0.851-2.149,4.383-7.259,3.671-9.089c-1.265-3.247-2.945-5.989-3.5-10C-68.118,215.241-62.212,223.407-62.294,224.177z"/>
			<path style="fill-rule:evenodd;clip-rule:evenodd;fill:#F287B7;" d="M-51.053,230.989c0.594,1.29,1.211,3,0.862,4.184
				c-1.081,3.667-5.823-3.831-6.79-4.836c-2.132-2.215-4.805,0.392-6.998,1.566c-1.17,0.626-2.382,1.088-3.651,1.403
				c-1.347,0.334-2.718,0.973-2.282-0.921c0.518-2.248,3.572-4.78,5.214-6.2c0.406-0.351,0.727-0.761,1.157-1.095
				c-0.818-1.291-8-10.33-5.766-11.388c0.946-0.448,4.33,2.643,5.142,3.172c1.545,1.007,3.066,2.575,4.724,3.175
				c0.086-2.34,1.446-5.178,2.037-7.435c0.329-1.255,2.423-6.169,3.466-3.804c0.573,1.3-0.006,3.209-0.003,4.561
				c0.003,1.798,0.158,3.55,0.155,5.329c-0.002,1.771,0.02,1.969,1.674,1.986c1.202,0.012,2.396,0.03,3.651,0.144
				c1.072,0.098,2.186,0.148,3.212,0.504c4.306,1.506-0.977,2.522-2.603,3.025c-0.899,0.278-1.757,0.769-2.586,1.149
				c-0.495,0.227-1.931,0.579-2.248,0.984c-0.815,1.039,0.756,2.739,1.201,3.612C-51.352,230.363-51.203,230.662-51.053,230.989z"/>
			<path style="fill-rule:evenodd;clip-rule:evenodd;fill:#F5A6C8;" d="M-51.053,230.989c0.594,1.29,1.211,3,0.862,4.184
				c-0.38,1.289-1.213,1.198-2.174,0.494c0.378-0.049,0.683-0.347,0.874-0.994c0.349-1.184-0.268-2.894-0.862-4.184
				c-0.15-0.327-0.299-0.626-0.431-0.884c-0.445-0.873-2.016-2.573-1.202-3.612c0.318-0.404,1.754-0.757,2.249-0.984
				c0.829-0.381,1.687-0.871,2.586-1.15c1.486-0.46,6.024-1.348,3.51-2.647c0.132,0.036,0.264,0.076,0.393,0.121
				c4.306,1.506-0.977,2.521-2.603,3.025c-0.899,0.279-1.757,0.769-2.586,1.15c-0.495,0.227-1.931,0.579-2.249,0.984
				c-0.815,1.039,0.757,2.739,1.202,3.612C-51.352,230.363-51.203,230.662-51.053,230.989L-51.053,230.989L-51.053,230.989z
				 M-58.681,229.481c-1.75-0.134-3.658,1.544-5.296,2.422c-1.17,0.626-2.382,1.088-3.651,1.403
				c-1.141,0.283-2.299,0.784-2.362-0.218c0.332-0.079,0.698-0.192,1.062-0.282c1.269-0.315,2.481-0.776,3.651-1.403
				C-63.221,230.302-60.74,227.938-58.681,229.481L-58.681,229.481L-58.681,229.481z M-68.794,214.176
				c1.52,0.264,3.866,2.201,4.631,2.698c1.135,0.74,2.257,1.783,3.43,2.522l-0.061,1.78
				C-61.414,220.952-66.794,216.676-68.794,214.176L-68.794,214.176L-68.794,214.176z M-55.186,208.434
				c0.463-0.391,0.912-0.39,1.25,0.377c0.574,1.3-0.005,3.208-0.003,4.561c0.003,1.798,0.158,3.549,0.155,5.328
				c-0.001,0.727,0.002,1.189,0.121,1.482c-1.403-0.038-1.133-0.33-1.131-2.006C-54.792,217.005-55.043,208.816-55.186,208.434z"/>
			<path style="fill-rule:evenodd;clip-rule:evenodd;fill:#EF456D;" d="M-56.794,219.176c-0.225,2.27,2.384,3.904,4,4
				c-2.74,0.214-2.309,3.828-2,5c-2.766-5.22-4.5-2.5-7-1c2-1.5,3.247-4.264,0-6C-57.294,223.176-57.794,222.176-56.794,219.176z"/>
		</g>
		<path style="fill-rule:evenodd;clip-rule:evenodd;fill:#00575A;" d="M-102.594,271.169c3-6.993,15.5-10.493,28-5.993
			c14.5,7.5,18.313,15.002,30,15.002c15-0.002,22-39.002,41.999-13.007v33.005h-99.999
			C-102.594,286.843-102.594,284.502-102.594,271.169z"/>
		<path style="fill-rule:evenodd;clip-rule:evenodd;fill:#FFC230;" d="M-102.594,276.176c11.289-5.805,22.621-7.376,34.041,0
			c14.315,11.893,28.318,19.698,39.971,0c8.722-13.611,17.411-18.094,25.989,0v24h-100
			C-102.594,292.176-102.594,284.176-102.594,276.176z"/>
		<path style="fill-rule:evenodd;clip-rule:evenodd;fill:#F2A61E;" d="M-73.594,290.176c1.652,0,3-0.894,3-1.99
			c0-1.096-1.348-1.99-3-1.99s-3,0.894-3,1.99C-76.594,289.281-75.246,290.176-73.594,290.176z"/>
		<path style="fill-rule:evenodd;clip-rule:evenodd;fill:#FCB116;" d="M-102.594,290.176c8.5,1,3,6,28,8c13.5,0-22.437-6.006,43-1
			c44.999,4-15-7,29-7v10h-99.999C-102.594,296.842-102.594,293.508-102.594,290.176z"/>
		<path style="fill-rule:evenodd;clip-rule:evenodd;fill:#FCB116;" d="M-84.594,294.176c2.754,0,5-0.899,5-2c0-1.102-2.246-2-5-2
			c-2.754,0-5,0.898-5,2C-89.594,293.276-87.348,294.176-84.594,294.176z"/>
		<path style="fill-rule:evenodd;clip-rule:evenodd;fill:#FCB116;" d="M-25.594,295.176c1.652,0,3-0.449,3-1c0-0.551-1.347-1-3-1
			c-1.652,0-3,0.449-3,1C-28.594,294.725-27.246,295.176-25.594,295.176z"/>
		<ellipse style="fill-rule:evenodd;clip-rule:evenodd;fill:#FCB116;" cx="-51.594" cy="293.176" rx="2" ry="1"/>
		<path style="fill-rule:evenodd;clip-rule:evenodd;fill:#FCB116;" d="M-65.594,292.176c2.203,0,4-0.449,4-1c0-0.551-1.797-1-4-1
			c-2.203,0-4,0.449-4,1C-69.594,291.725-67.797,292.176-65.594,292.176z"/>
		<ellipse style="fill-rule:evenodd;clip-rule:evenodd;fill:#FCB116;" cx="-76.594" cy="296.175" rx="2" ry="1"/>
		<path style="fill-rule:evenodd;clip-rule:evenodd;fill:#FCB116;" d="M-95.593,287.176c3.305,0,6-0.899,6-2c0-1.102-2.695-2-6-2
			c-3.305,0-6,0.898-6,2C-101.594,286.277-98.899,287.176-95.593,287.176z"/>
		<path style="fill-rule:evenodd;clip-rule:evenodd;fill:#FCB116;" d="M-37.594,299.175c3.855,0,7-1.123,7-2.5s-3.145-2.5-7-2.5
			s-7,1.123-7,2.5C-44.594,298.053-41.449,299.175-37.594,299.175z"/>
		<path style="fill-rule:evenodd;clip-rule:evenodd;fill:#004A4A;" d="M-37.672,277.416c-0.989-4.643-4.207-15.221-4.207-15.221
			c-1.326-9.417,0.443-22.412,0.443-22.412c-3.253,7.527-3.871,19.754-3.871,19.754c-0.687,7.232,1.819,12.864,1.819,12.864
			c2.839,3.306-0.121,14.344-0.121,14.344c1.189,3.338,4.493,0.12,4.493,0.12S-36.867,281.217-37.672,277.416z"/>
		<path style="fill-rule:evenodd;clip-rule:evenodd;fill:#004A4A;" d="M-90.829,268.732c0,0-1.17,3.232,1.988,3.496
			c4.637,0.39,2.306-7.153,2.306-7.153s3.139-9.773-8.704-22.966C-95.24,242.109-87.054,256.573-90.829,268.732z"/>
		<path style="fill-rule:evenodd;clip-rule:evenodd;fill:#004A4A;" d="M-84.819,274.391c0,0-5.549-2.415-2.051-14.891
			c2.589-9.24,4.35-9.178,4.35-9.178s-2.384,24.317,2.624,21.516C-79.896,271.838-78.334,275.112-84.819,274.391L-84.819,274.391
			L-84.819,274.391z M-82.583,250.322c0,0,5.247-7.947,1.192-14.385c-4.051-6.437-6.595-8.98-4.449-12.874
			c0,0.003-5.186,2.632,0.875,14.542C-84.964,237.605-81.419,241.417-82.583,250.322z"/>
		<path style="fill-rule:evenodd;clip-rule:evenodd;fill:#004A4A;" d="M-44.702,289.867c0,0-7.523-8.108-3.179-17.085
			c4.347-8.979,5.301-10.252,3.046-13.272c-2.251-3.02-4.796-5.088-2.49-10.173c0,0-1.759,5.322,5.562,10.49
			c0,0,3.613,6.001-1.796,13.113c-5.406,7.111,2.273,11.761,2.273,11.761S-39.506,289.114-44.702,289.867z"/>
		<path style="fill-rule:evenodd;clip-rule:evenodd;fill:#FEDD6C;" d="M-102.594,276.176c11.289-5.805,22.621-7.376,34.041,0
			c14.315,11.893,28.318,19.698,39.971,0c8.722-13.611,17.411-18.094,25.989,0c0,2,0,4,0,6c-8.465-23.828-17.167-18.61-25.989,0
			c-11.652,19.698-25.656,7.895-39.971-3.998c-11.356-6.449-22.716-1.301-34.041,3.998
			C-102.594,280.176-102.594,278.176-102.594,276.176z"/>
		<path style="fill-rule:evenodd;clip-rule:evenodd;fill:#B5CB34;" d="M-5.438,267.959c-0.986,1.692-2.116,4.303-3.744,5.516
			c-2.336,1.739-4.417-0.145-5.203-2.493c-0.718-2.145-0.541-4.991,0.059-7.138c0.781-2.795,3.484-3.436,5.98-2.441
			C-5.048,262.718-3.516,264.659-5.438,267.959z"/>
		<path style="fill-rule:evenodd;clip-rule:evenodd;fill:#B5CB34;" d="M-24.756,271.845c0.482,0.32,1.013,0.632,1.569,0.948
			c3.204,1.825,6.338,3.803,9.315,5.84c0.924,0.632,1.927,0.775,2.825,0.48c1.041-0.344,1.944-1.275,2.435-2.708
			c0.855-2.492-1.262-5.026-2.548-6.957c-1.381-2.07-3.468-6.592-5.793-7.652c-2.502-1.143-7.083,2.161-8.67,4.011
			C-28.133,268.739-26.975,270.373-24.756,271.845z"/>
		<path style="fill-rule:evenodd;clip-rule:evenodd;fill:#7D8F39;" d="M-24.864,269.04c-2.438-2.36,5.615-8.301,6.679-5.334
			C-17.379,265.952-22.813,271.025-24.864,269.04z"/>
		<path style="fill-rule:evenodd;clip-rule:evenodd;fill:#F2A61E;" d="M-30.457,289.918c0.739,1.206,4.315,0.918,5.525,0.975
			c2.806,0.133,5.535,0.342,8.304,0.733c2.112,0.298,4.405,0.745,6.524,0.457c1.632-0.221,3.682-1.263,4.329-2.921
			c0.719-1.841-1.106-3.764-2.816-4.116c-1.945-0.401-4.419-0.571-6.492-0.542c-1.263,0.02-2.562,0.389-3.815,0.568
			c-1.156,0.165-2.426,0.211-3.543,0.539C-23.58,285.946-31.741,287.824-30.457,289.918z"/>
		<path style="fill-rule:evenodd;clip-rule:evenodd;fill:#D4772B;" d="M-8.55,285.055l-0.042-0.009
			c-1.945-0.401-4.419-0.571-6.492-0.542c-1.263,0.02-2.563,0.389-3.815,0.568c-1.156,0.165-2.426,0.211-3.543,0.538
			c-0.491,0.145-2.286,0.576-4.068,1.188c1.428,1.004,3.12,1.748,4.526,2.33c3.658,1.512,9.896,2.09,10.055-3.231l0.002-0.107
			c0.232,0.085,0.458,0.138,0.674,0.151C-10.188,286.005-9.291,285.658-8.55,285.055z"/>
		<path style="fill-rule:evenodd;clip-rule:evenodd;fill:#91A63B;" d="M-7.169,270.99c-0.033,0.087-0.264,0.124-0.111,0.198
			c1.53-2.331-1.261-2.958-2.739-3.697c-1.625-0.813-2.687-2.523-4.221-3.442c-0.934,0.831-0.284,3.061-0.542,4.199
			c-0.31,1.371-1.358,2.198-1.894,3.431c0.857,0.438,1.378-0.329,2.115-0.729c0.886-0.479,1.416-0.625,2.485-0.682
			c1.831-0.097,3.572,0.026,4.614,1.605c0.207-0.059,0.175-0.187,0.292-0.306l0-0.577H-7.169z"/>
		<path style="fill-rule:evenodd;clip-rule:evenodd;fill:#91A63B;" d="M-24.756,271.845c0.482,0.32,1.013,0.632,1.569,0.948
			c3.204,1.825,6.338,3.803,9.315,5.84c0.924,0.632,1.927,0.775,2.825,0.48c-0.361-1.675-1.366-3.667-1.881-4.595
			c-1.121-2.037-2.764-4.232-5.28-4.431c-1.628-0.128-3.485,0.071-4.979,0.732C-23.84,271.107-24.362,271.36-24.756,271.845z"/>
		<path style="fill-rule:evenodd;clip-rule:evenodd;fill:#B5CB34;" d="M-11.252,284.59c-1.537-0.093-3.599-2.203-4.361-3.463
			c-0.878-1.451-1.365-3.475-1.194-5.17c0.275-2.731,0.896-6.826,4.417-7.077c1.629-0.116,3.572,1.189,4.78,2.142
			c1.837,1.449,1.888,2.71,1.952,4.915C-5.565,279.073-7.185,284.836-11.252,284.59z"/>
		<path style="fill-rule:evenodd;clip-rule:evenodd;fill:#7D8F39;" d="M-14.558,282.99c0.93,0.935,2.888,2.25,3.508,0.51
			c0.41-1.149-0.077-2.754-0.363-3.886c-0.391-1.549-0.967-3.774-2.466-4.656c-0.545-0.32-1.779-0.554-2.381-0.217
			c-0.748,0.418-0.687,1.216-0.65,2.054C-16.812,279.017-16.148,281.392-14.558,282.99z"/>
		<path style="fill-rule:evenodd;clip-rule:evenodd;fill:#7D8F39;" d="M-10.091,275.64c-1.287-0.438-2.839-2.154-2.816-3.605
			c0.038-2.362,2.977-0.376,3.773,0.382C-7.849,273.644-7.493,276.524-10.091,275.64z"/>
		<path style="fill-rule:evenodd;clip-rule:evenodd;fill:#B5CB34;" d="M-21.982,287.777c-3.052-1.264-7.456-3.288-7.576-7.097
			c-0.104-3.322,2.765-6.243,5.845-7.19c3.002-0.923,6.146,0.297,8.165,2.488c1.919,2.082,3.709,5.634,3.621,8.568
			C-12.088,289.867-18.325,289.289-21.982,287.777z"/>
		<path style="fill-rule:evenodd;clip-rule:evenodd;fill:#7D8F39;" d="M-22.116,275.723c1.706,2.298-2.09,8.105-4.594,5.766
			C-29.127,279.231-24.511,272.506-22.116,275.723z"/>
		<path style="fill-rule:evenodd;clip-rule:evenodd;fill:#7D8F39;" d="M-8.267,263.993c-0.53-0.183-3.988-1.636-2.265-2.382
			c0.862-0.373,2.142,0.406,2.914,0.717c0.62,0.25,1.796,0.594,1.801,1.448C-5.814,264.945-7.723,264.182-8.267,263.993z"/>
		<path style="fill-rule:evenodd;clip-rule:evenodd;fill:#F37B7D;" d="M-74.594,287.176c-0.222-0.882-0.006-1.403,0.132-2.205
			c0.247-1.433,0.45-5.042-0.567-7.909c0,0,1.453-2.282,0.447-3.184c-1.006-0.902-1.108,1.859-1.108,1.859s-1.271-2.443-1.068-3.292
			c0,0,1.424-1.168,1.119-1.857c-0.305-0.69-1.141,0.318-1.141,0.318s0.065-1.38,0.501-1.911c0.436-0.531,0.581-1.168,0-1.592
			c-0.581-0.424-1.649,1.115-2.005,2.866c-0.356,1.751,0.456,4.512,0.456,4.512s-0.863-1.274-1.524-1.009
			c-0.661,0.265,0.153,1.224,1.017,1.966c0.865,0.741,1.649,0.741,2.249,2.228c0.599,1.486,0.9,4.258,0.493,5.711
			c-0.407,1.453,0.511,5.107,1.03,5.498c1.095,0.151,1.597,0,2.155-0.267c-0.103-0.902,1.314-2.732,2.814-2.732
			c4-1,2.762-3.517,4.394-4.433c3.27,1.84,4.106-3.567,3.606-3.567c-1,0-1.5,1.5-3.141,2c0.141-1,1.141-4,1.141-4
			c1.136-0.218,2.5-1.5,1.87-2.896c-2.651-0.148-3.87,2.396-3.87,4.896c0,0-1.831-4.129-2.492-2.696
			c-0.661,1.433,1.492,3.696,1.492,3.696c0.5,2-2,3-2,3c0.305-1.062-0.54-2.5-1.445-2c-0.904,0.5-0.401,3.594-0.529,4.019
			c-0.219,0.728-2.924,2.544-3.025,2.981c1-4,1.5-5.5,3-9c0,0-0.151-2.175,0.784-2.972c0.935-0.796,2.032-2.123,2.399-3.344
			c0.367-1.221,0.869-1.433,1.661-1.645c0.791-0.212,0.998-0.637,0.869-1.115c-0.128-0.477-2.061,0-2.061,0s0.684-2.6,2.096-3.662
			c1.413-1.062,3.04-2.76,3.193-4.087c0.152-1.327-1.017-1.646-1.475-0.743c-0.457,0.902-0.455,2.442-1.753,3.291
			c-1.298,0.849-2.163,2.936-2.265,3.432c0,0-0.284-2.636,0.621-4.069c0.905-1.433,3.641-5.206,3.162-5.944
			c-0.478-0.739-2.563,1.539-3.58,3.981c-1.017,2.441-1.475,5.411-1.475,7.429c0,2.018-0.126,3.982-2.098,6.265
			c0,0,0.547-1.645,0-3.025c0,0,1.397-2.707,0.705-3.662c-0.693-0.955-1.405,1.486-1.405,1.486s-0.031-2.176,0.442-3.503
			c0.474-1.327-0.939-1.858-1.733-0.69c-0.794,1.167-0.6,2.707-0.6,2.707s-1.364-2.017-1.873-1.539
			c-0.509,0.478,0.338,2.601,1.873,3.079c0,0,0.67,1.805,1.179,2.176c0.508,0.372,0.815,2.445,0.382,3.717
			c0,0-0.767-1.276-1.16-1.169c-0.393,0.106,0.676,2.827,0.676,2.827s-1.532,3.755-1.681,5.081
			C-73.807,283.33-74.688,285.216-74.594,287.176z"/>
		<path style="fill-rule:evenodd;clip-rule:evenodd;fill:#91A63B;" d="M-13.546,284.201l1.619,0.346
			c-0.159,5.32-6.397,4.743-10.055,3.231c-2.972-1.23-7.226-3.183-7.557-6.802C-26.823,285.218-15.364,288.672-13.546,284.201z"/>
		<circle style="fill-rule:evenodd;clip-rule:evenodd;fill:#CC6228;" cx="-98.594" cy="296.175" r="1"/>
		<circle style="fill-rule:evenodd;clip-rule:evenodd;fill:#F9E6B8;" cx="-65.594" cy="298.175" r="1"/>
		<path style="fill-rule:evenodd;clip-rule:evenodd;fill:#DD6A26;" d="M-83.594,283.176c1.102,0,2-0.899,2-2c0-1.101-0.898-2-2-2
			c-1.102,0-2,0.898-2,2C-85.594,282.278-84.696,283.176-83.594,283.176z"/>
		<circle style="fill-rule:evenodd;clip-rule:evenodd;fill:#ED8C22;" cx="-8.094" cy="294.675" r="1.5"/>
		<circle style="fill-rule:evenodd;clip-rule:evenodd;fill:#B95126;" cx="-57.594" cy="291.175" r="1"/>
		<circle style="fill-rule:evenodd;clip-rule:evenodd;fill:#ED8C22;" cx="-37.594" cy="296.175" r="1"/>
		<circle style="fill-rule:evenodd;clip-rule:evenodd;fill:#CC6228;" cx="-52.094" cy="297.675" r="1.5"/>
		<circle style="fill-rule:evenodd;clip-rule:evenodd;fill:#F9E6B8;" cx="-73.594" cy="292.175" r="1"/>
		<circle style="fill-rule:evenodd;clip-rule:evenodd;fill:#ED8C22;" cx="-84.594" cy="288.175" r="1"/>
		<circle style="opacity:0.1412;fill-rule:evenodd;clip-rule:evenodd;fill:#B7E2E5;" cx="-89.594" cy="212.176" r="4"/>
		<circle style="opacity:0.1412;fill-rule:evenodd;clip-rule:evenodd;fill:#B7E2E5;" cx="-94.508" cy="228.76" r="2.913"/>
		<circle style="opacity:0.1412;fill-rule:evenodd;clip-rule:evenodd;fill:#B7E2E5;" cx="-68.594" cy="242.176" r="3"/>
		<circle style="opacity:0.1412;fill-rule:evenodd;clip-rule:evenodd;fill:#B7E2E5;" cx="-77.594" cy="257.176" r="3"/>
		<circle style="opacity:0.1412;fill-rule:evenodd;clip-rule:evenodd;fill:#B7E2E5;" cx="-86.594" cy="242.176" r="3"/>
		<circle style="opacity:0.1412;fill-rule:evenodd;clip-rule:evenodd;fill:#B7E2E5;" cx="-76.094" cy="212.676" r="1.5"/>
		<circle style="opacity:0.1412;fill-rule:evenodd;clip-rule:evenodd;fill:#B7E2E5;" cx="-24.594" cy="211.176" r="4"/>
		<circle style="opacity:0.1412;fill-rule:evenodd;clip-rule:evenodd;fill:#B7E2E5;" cx="-21.094" cy="232.676" r="1.5"/>
		<circle style="opacity:0.1412;fill-rule:evenodd;clip-rule:evenodd;fill:#B7E2E5;" cx="-36.094" cy="217.676" r="1.5"/>
		<circle style="opacity:0.1412;fill-rule:evenodd;clip-rule:evenodd;fill:#B7E2E5;" cx="-33.276" cy="235.868" r="1.308"/>
		<circle style="opacity:0.1412;fill-rule:evenodd;clip-rule:evenodd;fill:#B7E2E5;" cx="-22.594" cy="253.176" r="1"/>
		<circle style="opacity:0.1412;fill-rule:evenodd;clip-rule:evenodd;fill:#B7E2E5;" cx="-51.238" cy="270.532" r="3.356"/>
		<circle style="opacity:0.1412;fill-rule:evenodd;clip-rule:evenodd;fill:#B7E2E5;" cx="-30.594" cy="271.176" r="2"/>
		<circle style="opacity:0.1412;fill-rule:evenodd;clip-rule:evenodd;fill:#B7E2E5;" cx="-40.351" cy="248.485" r="1.757"/>
		<circle style="opacity:0.1412;fill-rule:evenodd;clip-rule:evenodd;fill:#B7E2E5;" cx="-14.094" cy="245.676" r="2.5"/>
		<circle style="opacity:0.1412;fill-rule:evenodd;clip-rule:evenodd;fill:#B7E2E5;" cx="-7.594" cy="215.176" r="2"/>
		<circle style="opacity:0.1412;fill-rule:evenodd;clip-rule:evenodd;fill:#B7E2E5;" cx="-54.594" cy="253.176" r="2"/>
		
			<ellipse style="opacity:0.1412;fill-rule:evenodd;clip-rule:evenodd;fill:#B7E2E5;" cx="-96.492" cy="265.176" rx="1.103" ry="1"/>
	</g>
</g>
<g id="Layer_1">
</g>
</svg>
