<?xml version="1.0" encoding="iso-8859-1"?>
<!-- Generator: Adobe Illustrator 19.1.1, SVG Export Plug-In . SVG Version: 6.00 Build 0)  -->
<svg version="1.1" xmlns="http://www.w3.org/2000/svg" xmlns:xlink="http://www.w3.org/1999/xlink" x="0px" y="0px"
	 viewBox="0 0 100 100" style="enable-background:new 0 0 100 100;" xml:space="preserve">
<g id="Layer_7">
	<g>
		<rect x="-102.593" y="200.175" style="fill-rule:evenodd;clip-rule:evenodd;fill:#007376;" width="100" height="100"/>
		<path style="fill-rule:evenodd;clip-rule:evenodd;fill:#006A6C;" d="M-102.593,228.238c8.378,0.164,17-9.996,29,6.004
			c12.5,11.5,26,4,36-5c7.5-7.5,25.5-15.5,35-8v41.999l-100,0C-102.593,252.24-102.593,239.239-102.593,228.238z"/>
		<path style="fill-rule:evenodd;clip-rule:evenodd;fill:#006063;" d="M-102.593,250.162c8.378,0.164,17-9.996,29,6.004
			c12.5,11.5,26,4,36-5c7.5-7.5,25.5-15.5,35-8v40h-100C-102.593,272.164-102.593,261.163-102.593,250.162z"/>
		<path style="fill-rule:evenodd;clip-rule:evenodd;fill:#00575A;" d="M-102.593,267.171c8.378,0.165,17-9.996,29,6.004
			c12.5,11.5,26,4,36-5c7.5-7.5,25.5-15.5,35-8v40l-100,0C-102.593,289.174-102.593,278.172-102.593,267.171z"/>
		<path style="fill-rule:evenodd;clip-rule:evenodd;fill:#FFC230;" d="M-102.593,276.175c8,0,12-11.5,24.056,0
			c12.444,9,27.275,9.73,40.907,0c11.322-7.287,22.964-8.597,35.037,0v24h-100V276.175z"/>
		<path style="fill-rule:evenodd;clip-rule:evenodd;fill:#FCB116;" d="M-27.593,283.175c-2.591-1.164-5-3-5-6
			c0-3,6.349-0.573,8.905-0.016c0.952-0.952,1.759-3.509,3.521-2.903c1.148,0.395,1.481,2.544,1.574,3.919c3.205,1.331,8,0,8,2
			c0,2.5-3.396,3.252-7,4c0.698,1.396,3.348,4.386,1.661,5.632c-2.081,1.537-6.522-1.905-7.661-3.632c0-0.051-9,5.5-9.013,1.523
			C-32.325,285.045-29.453,284.527-27.593,283.175z"/>
		<path style="fill-rule:evenodd;clip-rule:evenodd;fill:#FCB116;" d="M-102.593,290.189c9.003-3.449,26.317-1.821,27,0.986
			c0.174,0.61-1.914,1.621-8,3c-28.6,5.065,75.2,5.332,58,1c-36.711-9.247,16.246-6.771,23-4.89l0,9.89h-100
			C-102.593,298.877-102.593,291.486-102.593,290.189z"/>
		<path style="fill-rule:evenodd;clip-rule:evenodd;fill:#FCB116;" d="M-55.593,300.175c5.508,0,10-0.898,10-2c0-1.102-4.492-2-10-2
			c-5.508,0-10,0.899-10,2C-65.593,299.276-61.102,300.175-55.593,300.175z"/>
		<path style="fill-rule:evenodd;clip-rule:evenodd;fill:#FCB116;" d="M-70.593,295.175c2.203,0,4-0.449,4-1c0-0.551-1.797-1-4-1
			c-2.203,0-4,0.449-4,1C-74.593,294.725-72.796,295.175-70.593,295.175z"/>
		<path style="fill-rule:evenodd;clip-rule:evenodd;fill:#FCB116;" d="M-38.594,298.175c2.203,0,4-0.899,4-2s-1.797-2-4-2
			c-2.203,0-4,0.898-4,2C-42.594,297.277-40.796,298.175-38.594,298.175z"/>
		<path style="fill-rule:evenodd;clip-rule:evenodd;fill:#FCB116;" d="M-50.593,295.175c2.754,0,5-0.899,5-2c0-1.101-2.246-2-5-2
			c-2.754,0-5,0.898-5,2C-55.593,294.277-53.347,295.175-50.593,295.175z"/>
		<path style="fill-rule:evenodd;clip-rule:evenodd;fill:#004A4A;" d="M-29.056,236.675c0,0-7.519,8.096-1.434,16.481
			c6.083,8.385,1.3,22.061-1.073,21.059c-2.373-1.002-1.933-3.773-0.295-9.093c1.639-5.32-4.391-11.868-3.362-16.516
			C-34.192,243.958-33.315,241.016-29.056,236.675z"/>
		<path style="fill-rule:evenodd;clip-rule:evenodd;fill:#004A4A;" d="M-74.544,264.309c-0.989-4.643-4.207-15.222-4.207-15.222
			c-1.326-9.417,0.443-22.412,0.443-22.412c-3.253,7.527-3.871,19.754-3.871,19.754c-0.687,7.232,1.819,12.864,1.819,12.864
			c2.839,3.306-0.121,14.345-0.121,14.345c1.189,3.338,4.493,0.12,4.493,0.12S-73.738,268.11-74.544,264.309z"/>
		<path style="fill-rule:evenodd;clip-rule:evenodd;fill:#004A4A;" d="M-87.385,272.003c0,0-5.549-2.414-2.051-14.891
			c2.589-9.24,4.35-9.178,4.35-9.178s-2.384,24.317,2.624,21.516C-82.462,269.45-80.901,272.724-87.385,272.003L-87.385,272.003
			L-87.385,272.003z M-85.149,247.934c0,0,5.247-7.948,1.192-14.385c-4.052-6.437-6.595-8.98-4.449-12.874
			c0,0.003-5.186,2.632,0.875,14.542C-87.531,235.217-83.985,239.029-85.149,247.934z"/>
		<path style="fill-rule:evenodd;clip-rule:evenodd;fill:#004A4A;" d="M-24.992,263.243c1.715-4.642,9.935-14.979,9.935-14.979
			c2.302-9.419-5.962-19.193-5.962-19.193c9.377,6.993,9.298,16.292,9.298,16.292c1.193,7.231-5.482,12.952-5.482,12.952
			c-4.942,3.306-2.392,14.225-2.392,14.225c-4.265,1.939-6.192-1.191-6.192-1.191S-26.396,267.044-24.992,263.243z"/>
		<path style="fill-rule:evenodd;clip-rule:evenodd;fill:#004A4A;" d="M-25.17,252.701c0,0,0.771,16.94,7.147,20.472
			c0,0-5.17,0.278-9.143-7.592c-3.974-7.869,6.335-19.142,9.427-21.095c3.097-1.953,3.5-11.803,1.078-13.992
			c0,0,0.099,8.851-5.222,14.508C-27.205,250.661-25.17,252.701-25.17,252.701z"/>
		<path style="fill-rule:evenodd;clip-rule:evenodd;fill:#FEDD6C;" d="M-102.593,276.175c8,0,12-11.5,24.056,0
			c12.444,9,27.275,9.73,40.907,0c11.322-7.287,22.964-8.597,35.037,0v6c-12.074-8.597-23.678-11.288-35-4
			c-13.645,12.424-28.569,11.705-41,0c-3.801-3.591-7.056-3.963-10-4c-5.403-0.068-9.597,3.273-14,7.001L-102.593,276.175z"/>
		<path style="fill-rule:evenodd;clip-rule:evenodd;fill:#004A4A;" d="M-44.769,275.361c-0.654,0.082-1.331,0.251-1.966,0.165
			c-2.472-0.334-4.914-0.837-7.28-1.606c-1.356-0.441-2.674-0.99-4.001-1.509c-0.364-0.143-0.647-0.081-0.935,0.144
			c-0.104,0.081-0.284,0.19-0.371,0.155c-0.521-0.21-0.917,0.026-1.322,0.274c-0.084,0.051-0.18,0.085-0.27,0.126v0.001
			c-0.437,0.33-0.919,0.544-1.462,0.301c-0.193-0.086-0.354-0.311-0.436-0.508c-0.027-0.064,0.231-0.261,0.383-0.361
			c0.183-0.12,0.397-0.195,0.586-0.307c0.089-0.075,0.177-0.15,0.265-0.225c0.095-0.147,0.048-0.3-0.147-0.476
			c-0.506-0.457-1.019-0.909-1.554-1.334c-0.399-0.316-0.985-0.162-1.255,0.295c-0.101,0.171-0.155,0.372-0.277,0.526
			c-0.108,0.137-0.311,0.338-0.418,0.312c-0.179-0.044-0.384-0.22-0.456-0.389c-0.276-0.646-0.098-1.245,0.349-1.766
			c0.194-0.226,0.408-0.436,0.412-0.691c-0.015-0.061-0.026-0.122-0.034-0.185c-0.027-0.071-0.069-0.146-0.133-0.225
			c-0.042-0.052-0.022-0.203,0.029-0.261c0.067-0.076,0.117-0.154,0.156-0.233c0.021-0.082,0.048-0.163,0.079-0.243
			c0.045-0.245,0-0.502-0.058-0.771c-0.026-0.121-0.047-0.242-0.066-0.364c-0.132-0.66-0.263-1.319-0.395-1.979
			c-0.261-0.726-0.643-1.416-0.962-2.125c-0.611-1.356-1.278-2.693-1.807-4.078c-0.391-1.024-0.535-2.115-0.185-3.204
			c0.055-0.17,0.133-0.333,0.191-0.475c0.422,0.561,0.787,1.132,1.239,1.631c1.147,1.266,2.652,2.012,4.31,2.441
			c1.015,0.263,2.073,0.386,3.119,0.525c0.6,0.08,1.213,0.053,1.82,0.095c0.918,0.063,1.788-0.142,2.656-0.388
			c0.549-0.156,1.103-0.293,1.658-0.427c0.605-0.146,0.898-0.031,1.245,0.462c0.281,0.399,0.809,0.567,1.214,0.298
			c0.685-0.456,1.328-0.97,1.986-1.464c0.096-0.072,0.187-0.151,0.277-0.23c0.379-0.512,0.68-1.079,0.885-1.684
			c0.138-0.685,0.239-1.375,0.353-2.053c0.237,0.377,0.29,0.844,0.238,1.31c-0.214,1.895-1.162,3.336-2.931,4.26
			c-0.348,0.181-0.679,0.393-1.017,0.593c-0.021,0.012-0.028,0.046-0.025,0.041c0.192,0.199,0.372,0.389,0.556,0.576
			c0.076,0.078,0.149,0.193,0.243,0.216c0.742,0.185,0.826,0.457,0.601,1.315c-0.231,0.881-0.576,1.735-0.797,2.618
			c-0.266,1.066-0.253,2.151-0.108,3.24c0.24,1.791,0.975,3.394,2.12,4.797c0.939,1.151,2.104,2.07,3.68,2.359
			c0.105,0.019,0.193,0.126,0.289,0.192C-44.59,275.169-44.668,275.348-44.769,275.361L-44.769,275.361L-44.769,275.361z
			 M-62.608,273.013c0.019,0.013,0.039,0.027,0.058,0.041c-0.005-0.039-0.004-0.079,0.004-0.117
			C-62.567,272.963-62.587,272.988-62.608,273.013L-62.608,273.013L-62.608,273.013z M-64.844,270.789
			c0.058-0.104,0.113-0.209,0.174-0.31C-64.741,270.572-64.8,270.676-64.844,270.789L-64.844,270.789L-64.844,270.789z
			 M-60.909,273.017c-0.002,0.029-0.005,0.058-0.007,0.087c0.048-0.073,0.091-0.144,0.129-0.214
			C-60.827,272.933-60.868,272.975-60.909,273.017z"/>
		<g>
			<path style="fill-rule:evenodd;clip-rule:evenodd;fill:#B5CB34;" d="M-65.458,280.342c-5.986-5.535,3.348-9.215-0.324-18.65
				c-0.007-0.019-0.015-0.041-0.021-0.063c-0.394-0.409-0.406-1.059-0.016-1.481c0.404-0.438,1.088-0.466,1.526-0.061
				c0.277,0.274,0.484,0.501,0.562,0.827c4.855,5.496-4.59,13.851-0.361,17.755c0.462,0.377,0.531,1.057,0.154,1.52
				C-64.316,280.65-64.996,280.719-65.458,280.342z"/>
			<path style="fill-rule:evenodd;clip-rule:evenodd;fill:#96BA3D;" d="M-62.064,281.378c-6.657-3.481,1.24-7.952,1.709-13.123
				c0-0.596,0.484-1.08,1.08-1.08c0.597,0,1.08,0.484,1.08,1.08c-0.575,6.321-7.001,9.027-3.042,11.127
				c0.551,0.229,0.813,0.86,0.584,1.411C-60.881,281.345-61.513,281.607-62.064,281.378z"/>
			<path style="fill-rule:evenodd;clip-rule:evenodd;fill:#B5CB34;" d="M-58.585,288.42c3.653-10.352,6.789-11.28,1.528-21.225
				c-0.475-0.897-0.455-0.798-1.079-1.424c-0.492-0.337-0.618-1.009-0.281-1.501c0.337-0.492,1.009-0.618,1.501-0.281
				c1.437,1.403,1.61,1.626,2.38,3.565c4.433,11.161,2.251,9.496-1.931,21.287c-0.116,0.585-0.685,0.965-1.27,0.849
				C-58.321,289.573-58.701,289.005-58.585,288.42z"/>
			<path style="fill-rule:evenodd;clip-rule:evenodd;fill:#728337;" d="M-59.336,284.469c-2.224-2.873,0.765-5.871,1.479-8.376
				l0.006,0.003c-0.05-0.594,0.391-1.117,0.986-1.167c0.594-0.05,1.117,0.391,1.167,0.986c-0.147,2.36-3.161,5.649-2.015,7.127
				c0.394,0.448,0.351,1.13-0.097,1.524C-58.26,284.96-58.942,284.917-59.336,284.469z"/>
			<path style="fill-rule:evenodd;clip-rule:evenodd;fill:#D0DD28;" d="M-68.575,285.434c-10.08-7.302,4.03-23.444-5.161-37.366
				c-0.924-1.399-2.043-1.552-2.229-2.632c-0.1-0.588,0.295-1.146,0.883-1.246c0.483-0.082,0.944,0.17,1.15,0.587
				c4.504,3.021,5.462,13.384,5.528,17.899c0.096,6.58-4.961,16.602,0.929,20.9c0.513,0.304,0.683,0.966,0.379,1.479
				C-67.4,285.569-68.062,285.738-68.575,285.434z"/>
			<path style="fill-rule:evenodd;clip-rule:evenodd;fill:#96BA3D;" d="M-70.869,289.404c-14.066-6.396-2.736-16.865-2.736-29.024
				c0-0.596,0.484-1.08,1.08-1.08c0.596,0,1.08,0.484,1.08,1.08c0,12.199-10.501,21.644,1.264,26.976
				c0.566,0.19,0.87,0.802,0.68,1.368C-69.691,289.29-70.304,289.594-70.869,289.404z"/>
			<path style="fill-rule:evenodd;clip-rule:evenodd;fill:#ED8C22;" d="M-70.441,289.312h13.5c1.238,0,2.25,0.9,2.25,2
				c0,1.1-1.056,1.711-2.25,2c-4.523,1.266-8.831,1.297-13.5,0c-1.195-0.286-2.25-0.9-2.25-2
				C-72.691,290.212-71.678,289.312-70.441,289.312z"/>
			<path style="fill-rule:evenodd;clip-rule:evenodd;fill:#AAACAC;" d="M-69.691,288.175h12c1.1,0,2,0.9,2,2c0,1.1-0.938,1.711-2,2
				c-4.02,1.266-7.85,1.297-12,0c-1.062-0.286-2-0.9-2-2C-71.691,289.075-70.791,288.175-69.691,288.175z"/>
			<path style="fill-rule:evenodd;clip-rule:evenodd;fill:#C7C5C5;" d="M-69.691,288.181h12c1.1,0,2,0.9,2,2
				c0,0.776-0.467,1.309-1.114,1.656c0.073-0.188,0.114-0.395,0.114-0.623c0-1.1-0.9-2-2-2l-12,0c-0.3,0-0.584,0.067-0.84,0.186
				C-71.225,288.685-70.516,288.181-69.691,288.181z"/>
			<path style="fill-rule:evenodd;clip-rule:evenodd;fill:#737474;" d="M-69.823,288.214h3.133c-1.1,0-2,0.9-2,2
				c0,2.741,7,1.961,9,2.961c-2.484,0.212-7.522-0.145-10.133-0.961c-1.062-0.286-2-0.9-2-2
				C-71.823,289.114-70.923,288.214-69.823,288.214z"/>
			<path style="fill-rule:evenodd;clip-rule:evenodd;fill:#AAACAC;" d="M-68.191,284.175h9.001c0.825,0,1.5,0.9,1.5,2
				c0,1.1-0.704,1.711-1.5,2c-3.025,0-5.644,0.079-9.001,0c-0.797-0.286-1.5-0.9-1.5-2
				C-69.691,285.075-69.016,284.175-68.191,284.175z"/>
			<path style="fill-rule:evenodd;clip-rule:evenodd;fill:#C7C5C5;" d="M-68.191,284.181h9.001c0.825,0,1.5,0.9,1.5,2
				c0,0.937-0.511,1.519-1.154,1.85c0.098-0.236,0.154-0.507,0.154-0.816c0-1.1-0.675-2-1.5-2h-9c-0.114,0-0.225,0.017-0.332,0.05
				C-69.272,284.622-68.768,284.181-68.191,284.181z"/>
			<path style="fill-rule:evenodd;clip-rule:evenodd;fill:#737474;" d="M-68.323,284.214l3.57-0.039c-0.751,0-3.37,2.126-0.938,3
				c0.587,0.014,5.651,0.995,6.199,1c-1.517,0.011-7.074,0.081-8.831,0.039c-0.797-0.286-1.5-0.9-1.5-2
				C-69.823,285.114-69.148,284.223-68.323,284.214z"/>
			<path style="fill-rule:evenodd;clip-rule:evenodd;fill:#AAACAC;" d="M-66.603,280.16c1.992-1.357,3.992-1.285,6,0
				c0.55,0,0.913,1.015,0.913,2.115c0,1.1-0.469,1.711-1,2c-1.974-0.034-3.886-0.135-6,0c-0.531-0.286-1-0.9-1-2
				C-67.691,281.176-67.153,280.16-66.603,280.16z"/>
			<path style="fill-rule:evenodd;clip-rule:evenodd;fill:#C7C5C5;" d="M-66.603,280.166c1.992-1.357,3.992-1.285,6,0
				c0.55,0,0.913,1.015,0.913,2.116c0,1.101-0.469,1.711-1,2l-0.148-0.003c0.093-0.269,0.148-0.588,0.148-0.964
				c0-1.1-0.362-2.116-0.912-2.116c-1.97-1.261-3.932-1.354-5.887-0.076C-67.284,280.561-66.946,280.166-66.603,280.166z"/>
			<path style="fill-rule:evenodd;clip-rule:evenodd;fill:#737474;" d="M-66.735,280.2c1.506-1.026,3.017-1.235,4.532-0.721
				c-5.987,1.196-3.713,3.687,1.512,4.797c-0.98-0.012-5.084-0.145-6.131-0.079c-0.531-0.286-1.001-0.782-1.001-1.882
				C-67.824,281.215-67.286,280.2-66.735,280.2z"/>
		</g>
		<g>
			<path style="fill-rule:evenodd;clip-rule:evenodd;fill:#F06286;" d="M-29.794,283.516c0.827-0.542,1.873-1.122,2.471-1.975
				c-0.972-0.204-2.255-1.282-2.92-2.023c-0.926-1.032-1.481-2.184-1.884-3.536c0.519-0.317,1.437,0.365,1.936,0.575
				c0.757,0.32,1.527,0.477,2.326,0.565c1.055,0.116,2.429,0.045,3.294,0.432l0.377-0.506c0.547-0.502,1.816-3.139,2.653-2.85
				c0.664,0.229,0.714,3.217,0.797,3.922c0.496,0.102,0.988,0.404,1.502,0.535c0.828,0.211,1.725,0.253,2.576,0.309
				c1.074,0.071,3.222-0.02,4.073,0.808c-2.171,2.003-5.245,1.567-7.75,2.417c0.567,1.786,1.8,3.111,2.716,4.674
				c0.919,1.568-0.895,1.451-1.905,1.075c-1.326-0.494-2.803-1.607-3.698-2.773c-0.3-0.391-0.407-0.77-0.914-0.813
				c-0.626-0.052-1.435,0.641-1.966,0.92c-1.742,0.919-4.62,1.862-6.484,0.863C-32.502,285.275-30.464,283.955-29.794,283.516z"/>
			<path style="fill-rule:evenodd;clip-rule:evenodd;fill:#DF1B55;" d="M-21.594,280.175c2.678,0.088,6.783,0.368,9-1
				c0.247,0.099-0.166,0.839,0,1c-2,1.5-5.5,2-8.001,2C-21.096,281.563-21.499,281.041-21.594,280.175z"/>
			<path style="fill-rule:evenodd;clip-rule:evenodd;fill:#DF1B55;" d="M-25.593,279.175c-0.585,0.721-1.345,1.38-2,2
				c-2.338-0.597-4.3-2.654-5-5c0.074-0.045,0.79,0.026,0.878,0.018C-30.428,278.568-28.067,279.342-25.593,279.175z"/>
			<path style="fill-rule:evenodd;clip-rule:evenodd;fill:#DF1B55;" d="M-20.773,274.164c0.543,0.426-0.043,3.098,0.03,3.954
				c-0.192-0.082-1.22,0.038-1.849,0.056C-21.97,277.294-21.064,275.307-20.773,274.164z"/>
			<path style="fill-rule:evenodd;clip-rule:evenodd;fill:#DF1B55;" d="M-32.593,285.175c2.884,0.927,6.703-0.98,9-3
				c0.761,2.934,3.339,3.839,6,5c0.268,1.253-1.222,1.027-1.939,0.761c-1.326-0.494-2.803-1.607-3.698-2.773
				c-1.289-1.68-1.088-0.837-2.879,0.108c-1.742,0.918-2.984,2.404-6.484,1.904C-32.577,287.023-32.714,285.349-32.593,285.175z"/>
		</g>
		<path style="fill-rule:evenodd;clip-rule:evenodd;fill:#F9E6B8;" d="M-89.593,281.175c1.101,0,2-0.899,2-2c0-1.102-0.899-2-2-2
			c-1.102,0-2,0.899-2,2C-91.593,280.276-90.694,281.175-89.593,281.175z"/>
		<path style="fill-rule:evenodd;clip-rule:evenodd;fill:#F9E6B8;" d="M-41.593,290.175c1.101,0,2-0.899,2-2c0-1.102-0.899-2-2-2
			c-1.102,0-2,0.899-2,2S-42.694,290.175-41.593,290.175z"/>
		<circle style="fill-rule:evenodd;clip-rule:evenodd;fill:#B95126;" cx="-96.093" cy="293.675" r="1.5"/>
		<circle style="fill-rule:evenodd;clip-rule:evenodd;fill:#FBEC7B;" cx="-85.093" cy="291.675" r="1.5"/>
		<circle style="fill-rule:evenodd;clip-rule:evenodd;fill:#FFFFFF;" cx="-97.629" cy="284.17" r="1.005"/>
		<circle style="fill-rule:evenodd;clip-rule:evenodd;fill:#FFFFFF;" cx="-82.597" cy="284.17" r="1.005"/>
		<circle style="fill-rule:evenodd;clip-rule:evenodd;fill:#B95126;" cx="-79.593" cy="295.175" r="1"/>
		<circle style="fill-rule:evenodd;clip-rule:evenodd;fill:#FBEC7B;" cx="-56.593" cy="298.175" r="1"/>
		<circle style="fill-rule:evenodd;clip-rule:evenodd;fill:#FBEC7B;" cx="-12.593" cy="294.175" r="1"/>
		<circle style="fill-rule:evenodd;clip-rule:evenodd;fill:#F9E6B8;" cx="-22.593" cy="292.175" r="1"/>
		<circle style="fill-rule:evenodd;clip-rule:evenodd;fill:#F9E6B8;" cx="-5.593" cy="297.175" r="1"/>
		<circle style="fill-rule:evenodd;clip-rule:evenodd;fill:#FFFFFF;" cx="-18.593" cy="298.175" r="1"/>
		<path style="fill-rule:evenodd;clip-rule:evenodd;fill:#B95126;" d="M-8.565,287.175c1.104,0,2.005-0.901,2.005-2.005
			c0-1.104-0.901-2.005-2.005-2.005s-2.005,0.901-2.005,2.005C-10.569,286.274-9.67,287.175-8.565,287.175z"/>
		<circle style="opacity:0.1412;fill-rule:evenodd;clip-rule:evenodd;fill:#B7E2E5;" cx="-78.593" cy="210.175" r="3"/>
		<circle style="opacity:0.1412;fill-rule:evenodd;clip-rule:evenodd;fill:#B7E2E5;" cx="-51.093" cy="225.175" r="2"/>
		<circle style="opacity:0.1412;fill-rule:evenodd;clip-rule:evenodd;fill:#B7E2E5;" cx="-42.843" cy="247.925" r="2.25"/>
		<circle style="opacity:0.1412;fill-rule:evenodd;clip-rule:evenodd;fill:#B7E2E5;" cx="-7.407" cy="265.055" r="1.814"/>
		<circle style="opacity:0.1412;fill-rule:evenodd;clip-rule:evenodd;fill:#B7E2E5;" cx="-11.094" cy="209.675" r="2.5"/>
		<circle style="opacity:0.1412;fill-rule:evenodd;clip-rule:evenodd;fill:#B7E2E5;" cx="-94.843" cy="236.925" r="1.75"/>
		<circle style="opacity:0.1412;fill-rule:evenodd;clip-rule:evenodd;fill:#B7E2E5;" cx="-62.843" cy="233.925" r="2.25"/>
		<circle style="opacity:0.1412;fill-rule:evenodd;clip-rule:evenodd;fill:#B7E2E5;" cx="-57.093" cy="253.675" r="2.5"/>
		<circle style="opacity:0.1412;fill-rule:evenodd;clip-rule:evenodd;fill:#B7E2E5;" cx="-97.343" cy="262.925" r="1.25"/>
		<circle style="opacity:0.1412;fill-rule:evenodd;clip-rule:evenodd;fill:#B7E2E5;" cx="-20.995" cy="244.788" r="2.387"/>
		<circle style="opacity:0.1412;fill-rule:evenodd;clip-rule:evenodd;fill:#B7E2E5;" cx="-31.094" cy="214.175" r="2.5"/>
		<circle style="opacity:0.1412;fill-rule:evenodd;clip-rule:evenodd;fill:#B7E2E5;" cx="-94.093" cy="209.675" r="2"/>
		<circle style="opacity:0.1412;fill-rule:evenodd;clip-rule:evenodd;fill:#B7E2E5;" cx="-38.843" cy="266.425" r="1.75"/>
		<circle style="opacity:0.1412;fill-rule:evenodd;clip-rule:evenodd;fill:#B7E2E5;" cx="-53.343" cy="211.425" r="1.75"/>
		<circle style="opacity:0.1412;fill-rule:evenodd;clip-rule:evenodd;fill:#B7E2E5;" cx="-26.343" cy="230.425" r="1.75"/>
		<circle style="opacity:0.1412;fill-rule:evenodd;clip-rule:evenodd;fill:#B7E2E5;" cx="-76.093" cy="238.675" r="1.5"/>
		<circle style="opacity:0.1412;fill-rule:evenodd;clip-rule:evenodd;fill:#B7E2E5;" cx="-83.343" cy="221.925" r="1.75"/>
	</g>
</g>
<g id="Layer_1">
</g>
</svg>
