<?xml version="1.0" encoding="iso-8859-1"?>
<!-- Generator: Adobe Illustrator 19.1.1, SVG Export Plug-In . SVG Version: 6.00 Build 0)  -->
<svg version="1.1" xmlns="http://www.w3.org/2000/svg" xmlns:xlink="http://www.w3.org/1999/xlink" x="0px" y="0px"
	 viewBox="0 0 100 100" style="enable-background:new 0 0 100 100;" xml:space="preserve">
<g id="Layer_9">
	<g>
		<g>
			<path style="fill-rule:evenodd;clip-rule:evenodd;fill:#88D2DB;" d="M100,5.119V26.5H0V6.191C2.426,7.924,5.301,8.961,8,9
				c5.818,0.084,12.014-5.274,17.54-5.962C31.791,2.26,35.421,8,45,8c9.509,0,8-8,16-8c7,0,9.354,9.338,16.072,9.089
				c3.221-0.119,6.41-1.678,6.54-2.584c1.59-0.221,2.983-3.847,6.564-0.861C92.277,7.397,96.794,7.264,100,5.119z"/>
			<path style="fill-rule:evenodd;clip-rule:evenodd;fill:#6ECBD4;" d="M100,10.369c0,5.295,0,10.59,0,15.884
				c-33.333,0-66.667,0-100,0c0-4.937,0-9.874,0-14.812c2.426,1.733,5.301,2.771,8,2.809c5.818,0.084,12.014-5.274,17.54-5.962
				C31.79,7.51,35.421,13.25,45,13.25c9.509,0,8.031-7.004,16-7.5c6.873-0.422,9.354,8.838,16.072,8.59
				c3.221-0.119,6.41-1.678,6.54-2.584c1.59-0.221,2.983-3.847,6.564-0.861C92.277,12.647,96.794,12.514,100,10.369z"/>
			<path style="fill-rule:evenodd;clip-rule:evenodd;fill:#57C5CC;" d="M100,15.619v10.387l-100,0v-9.315
				c2.426,1.733,5.301,2.771,8,2.809c5.818,0.084,12.014-5.274,17.54-5.962C31.79,12.76,35.421,18.5,45,18.5
				c9.509,0,8.062-6.007,16-7c6.747-0.844,9.354,8.339,16.072,8.09c3.221-0.119,6.41-1.678,6.54-2.584
				c1.59-0.221,2.983-3.847,6.564-0.861C92.277,17.897,96.794,17.764,100,15.619z"/>
		</g>
		<g>
			<path style="fill-rule:evenodd;clip-rule:evenodd;fill:#00BABE;" d="M5.602,13.217c1.828-3.306,7.347,0.591,16.125-4.25
				C9.522,18.394,8.933,8.892,5.602,13.217z"/>
			<path style="fill-rule:evenodd;clip-rule:evenodd;fill:#88D2DB;" d="M30.102,13.717c8.038-2.084,10.256,1.748,20.513-1.616
				c3.191-1.047,4.446-1.415,7.862-1.259c-3.279,0.149-4.61,0.629-7.53,2.049C37.581,19.389,42.432,11.725,30.102,13.717z"/>
			<path style="fill-rule:evenodd;clip-rule:evenodd;fill:#88D2DB;" d="M67.352,14.467c12.358,1.128,1.345,1.837,14.623-1.503
				c2.836-0.714,7.018-2.58,9.627-0.247c-2.653-1.914-6.699,0.192-9.087,1.53C74.512,18.729,74.184,15.837,67.352,14.467z"/>
			<path style="fill-rule:evenodd;clip-rule:evenodd;fill:#BBE4EB;" d="M56.352,6.216c2.502-4.543,7.346-2.004,10.625,0.375
				l-0.246-0.105C60.937,6.143,59.22,3.036,56.352,6.216z"/>
			<path style="fill-rule:evenodd;clip-rule:evenodd;fill:#00A4A6;" d="M30.352,16.716c3.44,0.265,6.271,1.75,7.375,1.375
				C34.789,20.436,32.255,17.651,30.352,16.716z"/>
			<path style="fill-rule:evenodd;clip-rule:evenodd;fill:#BBE4EB;" d="M25.977,6.341c0.054,0.007,6.973,0.375,7.125,0.375
				c-2.482,1.117-1.293,0.54-3.575,1.719C27.225,7.133,28.41,7.828,25.977,6.341z"/>
			<path style="fill-rule:evenodd;clip-rule:evenodd;fill:#00A4A6;" d="M17.352,14.842c1.625-1.224,2.335-1.802,4.085-2.776
				c1.952,0.871,2.114,1.369,4.29,1.901c-1.738,0.137-3.05-0.354-4.13,0.333C19.756,13.805,19.294,14.233,17.352,14.842z"/>
			<path style="fill-rule:evenodd;clip-rule:evenodd;fill:#00A4A6;" d="M56.602,14.217c4.462-2.604,5.121-1.273,8.531,1.514
				l-0.005-0.003c0.232,0.16,0.116,0.08,0.349,0.239C63.099,15.177,58.982,13.649,56.602,14.217z"/>
			<path style="fill-rule:evenodd;clip-rule:evenodd;fill:#00BABE;" d="M62.727,8.592c6.029-0.284,5.4,1.706,10.875,2.5
				c-0.265,0.024-0.133,0.012-0.398,0.036l0.004,0C64.616,12.186,69.068,9.894,62.727,8.592z"/>
			<path style="fill-rule:evenodd;clip-rule:evenodd;fill:#BBE4EB;" d="M85.602,8.217c0.628-1.186,1.052-1.314,2.204-2.028
				c1.357,0.556,1.624,0.856,2.796,1.653c-1.288-0.11-1.546-0.124-2.786,0.316C86.835,7.605,86.6,7.554,85.602,8.217z"/>
			<path style="fill-rule:evenodd;clip-rule:evenodd;fill:#00BABE;" d="M95.602,10.217c0.782-0.45,3.006-1.531,4.125-1.25
				C98.094,9.547,99.878,11.306,95.602,10.217z"/>
			<path style="fill-rule:evenodd;clip-rule:evenodd;fill:#00BABE;" d="M0.352,10.217c4.187-0.694,2.99,2.031,4.75,2.625
				C2.484,13.233,2.01,10.762,0.352,10.217z"/>
			<path style="fill-rule:evenodd;clip-rule:evenodd;fill:#BBE4EB;" d="M8.352,16.842c1.659-0.505,0.892-0.111,2.29-1.198
				c1.425,0.92,0.646,0.69,2.335,0.698c-1.489,1.098-0.742,0.511-2.233,1.766C9.208,17.028,10.013,17.436,8.352,16.842z"/>
			<path style="fill-rule:evenodd;clip-rule:evenodd;fill:#BBE4EB;" d="M69.977,19.342c0.667-0.126,2.597-0.227,2.878-0.647
				c1.261,0.815,1.218,0.054,2.747,0.147c-0.275,0.113-0.138,0.056-0.412,0.172l0.032-0.011c-0.618,0.562-1.635,1.761-2.531,1.866
				C71.413,19.859,71.664,19.859,69.977,19.342z"/>
			<path style="fill-rule:evenodd;clip-rule:evenodd;fill:#00BABE;" d="M38.852,9.342c1.331,0.878,6.461,0.841,8.75,1.125
				C44.253,11.15,41.819,12.932,38.852,9.342z"/>
			<path style="fill-rule:evenodd;clip-rule:evenodd;fill:#00A4A6;" d="M94.602,13.717c3.217-0.194,1.95-0.169,4.875,1.25
				C95.388,15.654,97.332,15.2,94.602,13.717z"/>
			<path style="fill-rule:evenodd;clip-rule:evenodd;fill:#00A4A6;" d="M0.102,15.467c2.142-0.941,3.008-1.168,5.25-1
				C2.292,15.871,5.383,17.019,0.102,15.467z"/>
			<path style="fill-rule:evenodd;clip-rule:evenodd;fill:#00BABE;" d="M23.102,8.967c2.071-1.915,5.199,1.831,12.487-0.213
				c0.194-0.054,0.193-0.041,0.388-0.037c-0.185,0.033-0.188,0.02-0.36,0.107C24.625,14.427,27.011,6.557,23.102,8.967z"/>
			<path style="fill-rule:evenodd;clip-rule:evenodd;fill:#00BABE;" d="M52.477,8.592c2.538-1.409,1.271-0.638,3.791-2.327
				c1.68,0.656,2.54,0.742,4.209,1.577c-1.878-0.233-2.353-0.298-3.845,0.843C53.87,8.184,55.255,8.215,52.477,8.592z"/>
		</g>
		<path style="fill-rule:evenodd;clip-rule:evenodd;fill:#88D2DB;" d="M0,26.002l100-0.007v-6.411c-2.611-2.196-5.92-3.541-9-3.585
			c-5.818-0.084-12.013,5.274-17.54,5.962C67.21,22.74,63.579,17,54,17c-9.508,0-8.062,6.007-16,7
			c-6.747,0.844-9.354-8.339-16.072-8.09c-3.221,0.119-6.41,1.678-6.54,2.584c-1.59,0.221-2.983,3.847-6.564,0.861
			C6.979,17.817,3.139,17.81,0,19.32V26.002z"/>
		<path style="fill-rule:evenodd;clip-rule:evenodd;fill:#39C0C3;" d="M0,45.083l100-0.007V20.68c-2.611-2.196-5.92-3.541-9-3.585
			c-5.818-0.084-12.013,5.274-17.54,5.962c-6.25,0.778-9.881-4.962-19.46-4.962c-9.508,0-8.062,6.008-16,7
			c-6.747,0.844-9.354-8.339-16.072-8.09c-3.221,0.119-6.41,1.678-6.54,2.584c-1.59,0.221-2.983,3.847-6.564,0.861
			C6.979,18.912,3.139,18.905,0,20.415V45.083z"/>
		<path style="fill-rule:evenodd;clip-rule:evenodd;fill:#00B4B6;" d="M0,63.406L100,63.4V39.346c-2.611-2.196-5.92-3.541-9-3.585
			c-5.818-0.084-12.013,5.274-17.54,5.962c-6.25,0.778-9.881-4.962-19.46-4.962c-9.508,0-8.062,6.007-16,7
			c-6.747,0.844-9.354-8.339-16.072-8.09c-3.221,0.119-6.41,1.678-6.54,2.584c-1.59,0.221-2.983,3.847-6.564,0.861
			C6.979,37.578,3.139,37.571,0,39.081V63.406z"/>
		<path style="fill-rule:evenodd;clip-rule:evenodd;fill:#00A4A6;" d="M0,81.729l100-0.007v-23.71c-2.611-2.196-5.92-3.541-9-3.585
			c-5.818-0.084-12.013,5.274-17.54,5.962c-6.25,0.778-9.881-4.962-19.46-4.962c-9.508,0-8.062,6.007-16,7
			c-6.747,0.844-9.354-8.339-16.072-8.09c-3.221,0.119-6.41,1.678-6.54,2.584c-1.59,0.221-2.983,3.847-6.564,0.861
			C6.979,56.244,3.139,56.237,0,57.747V81.729z"/>
		<path style="fill-rule:evenodd;clip-rule:evenodd;fill:#009294;" d="M100,76.68c-2.611-2.196-5.92-3.541-9-3.585
			c-5.818-0.084-12.013,5.274-17.54,5.962c-6.25,0.778-9.881-4.962-19.46-4.962c-9.508,0-8.062,6.007-16,7
			c-6.747,0.844-9.354-8.339-16.072-8.09c-3.221,0.119-6.41,1.678-6.54,2.584c-1.59,0.221-2.983,3.847-6.564,0.861
			C6.979,74.912,3.139,74.905,0,76.415V100h100V76.68z"/>
		<g>
			<circle style="opacity:0.4392;fill-rule:evenodd;clip-rule:evenodd;fill:#BBE4EB;" cx="68.962" cy="48" r="2.961"/>
			<path style="opacity:0.8392;fill-rule:evenodd;clip-rule:evenodd;fill:#EFF8F5;" d="M68.962,45.039
				c1.635,0,2.961,1.326,2.961,2.961c0,1.051-0.548,1.974-1.373,2.499c0.288-0.457,0.455-0.997,0.455-1.577
				c0-1.635-1.326-2.961-2.961-2.961c-0.584,0-1.129,0.169-1.588,0.462C66.98,45.591,67.906,45.039,68.962,45.039z"/>
		</g>
		<g>
			<circle style="opacity:0.4392;fill-rule:evenodd;clip-rule:evenodd;fill:#BBE4EB;" cx="42.001" cy="61" r="3"/>
			<path style="opacity:0.8392;fill-rule:evenodd;clip-rule:evenodd;fill:#EFF8F5;" d="M42.001,58c1.657,0,3,1.343,3,3
				c0,1.085-0.575,2.035-1.438,2.562c0.278-0.455,0.438-0.989,0.438-1.562c0-1.657-1.343-3-3-3c-0.572,0-1.107,0.16-1.562,0.438
				C39.965,58.575,40.916,58,42.001,58z"/>
		</g>
		<g>
			
				<circle style="opacity:0.4392;fill-rule:evenodd;clip-rule:evenodd;fill:#BBE4EB;stroke:#57C5CC;stroke-width:1.11;stroke-miterlimit:22.9256;" cx="56" cy="78" r="2"/>
			<path style="opacity:0.8392;fill-rule:evenodd;clip-rule:evenodd;fill:#EFF8F5;" d="M56,76c1.104,0,2,0.896,2,2
				c0,0.811-0.483,1.509-1.176,1.823C56.937,79.572,57,79.293,57,79c0-1.104-0.895-2-2-2c-0.294,0-0.572,0.063-0.824,0.177
				C54.491,76.483,55.189,76,56,76z"/>
		</g>
		<g>
			<circle style="opacity:0.4392;fill-rule:evenodd;clip-rule:evenodd;fill:#BBE4EB;" cx="88" cy="65" r="2"/>
			<path style="opacity:0.8392;fill-rule:evenodd;clip-rule:evenodd;fill:#EFF8F5;" d="M88,63c1.104,0,2,0.895,2,2
				c0,0.811-0.483,1.509-1.176,1.823C88.937,66.572,89,66.293,89,66c0-1.104-0.896-2-2-2c-0.294,0-0.572,0.063-0.823,0.177
				C86.49,63.483,87.189,63,88,63z"/>
		</g>
		<g>
			<circle style="opacity:0.4392;fill-rule:evenodd;clip-rule:evenodd;fill:#BBE4EB;" cx="18.001" cy="83" r="2"/>
			<path style="opacity:0.8392;fill-rule:evenodd;clip-rule:evenodd;fill:#EFF8F5;" d="M18.001,81c1.105,0,2,0.896,2,2
				c0,0.811-0.483,1.51-1.177,1.824C18.937,84.572,19,84.294,19,84c0-1.105-0.895-2-2-2c-0.293,0-0.572,0.063-0.823,0.177
				C16.491,81.482,17.19,81,18.001,81z"/>
		</g>
		<g>
			<circle style="opacity:0.4392;fill-rule:evenodd;clip-rule:evenodd;fill:#BBE4EB;" cx="27.96" cy="30.959" r="2.959"/>
			<path style="opacity:0.8392;fill-rule:evenodd;clip-rule:evenodd;fill:#EFF8F5;" d="M27.96,28c1.635,0,2.959,1.325,2.959,2.959
				c0,1.108-0.609,2.074-1.51,2.581c0.322-0.474,0.51-1.046,0.51-1.662c0-1.634-1.325-2.959-2.959-2.959
				c-0.527,0-1.021,0.137-1.449,0.379C26.043,28.514,26.941,28,27.96,28z"/>
		</g>
		<g>
			<circle style="opacity:0.4392;fill-rule:evenodd;clip-rule:evenodd;fill:#BBE4EB;" cx="84" cy="29.914" r="2"/>
			<path style="opacity:0.8392;fill-rule:evenodd;clip-rule:evenodd;fill:#EFF8F5;" d="M84,27.914c1.104,0,2,0.895,2,2
				c0,0.811-0.483,1.509-1.176,1.823c0.113-0.251,0.177-0.529,0.177-0.823c0-1.104-0.896-2-2-2c-0.294,0-0.572,0.063-0.824,0.177
				C82.491,28.397,83.189,27.914,84,27.914z"/>
		</g>
		<g>
			<circle style="opacity:0.4392;fill-rule:evenodd;clip-rule:evenodd;fill:#BBE4EB;" cx="11" cy="51" r="2"/>
			<path style="opacity:0.8392;fill-rule:evenodd;clip-rule:evenodd;fill:#EFF8F5;" d="M11,49c1.104,0,2,0.896,2,2
				c0,0.811-0.483,1.509-1.176,1.823C11.937,52.572,12,52.293,12,52c0-1.104-0.895-2-2-2c-0.294,0-0.572,0.063-0.824,0.177
				C9.49,49.483,10.189,49,11,49z"/>
		</g>
		<g>
			<path style="fill-rule:evenodd;clip-rule:evenodd;fill:#006F72;" d="M88.4,85.573c-1.339,0-3.432,0.775-4.433,1.884
				c-1.356-1.147-4.294-2.119-7.002-2.747c-0.985-1.433-1.07-2.538-0.979-3.193c0.024-0.175-0.04-0.35-0.174-0.471
				c-0.134-0.12-0.319-0.171-0.498-0.136c-1.766,0.344-2.737,1.845-3.244,3.048c-0.022-0.001-0.048-0.002-0.069-0.002
				c-2.736,0-6.682,2.139-6.682,4.776c0,2.638,3.946,4.776,6.682,4.776c0.091,0,0.192-0.003,0.299-0.007
				c0.988,0.513,2.143,0.828,2.994,0.828c1.045,0,0.534-0.473-0.084-1.209c3.072-0.567,7.1-1.711,8.758-3.113
				c1.001,1.109,3.095,1.884,4.433,1.884c1.809,0-1.044-1.415-1.044-3.159C87.357,86.988,90.209,85.573,88.4,85.573L88.4,85.573
				L88.4,85.573z M68.379,88.787c-0.418,0-0.756-0.326-0.756-0.729c0-0.403,0.339-0.729,0.756-0.729
				c0.418,0,0.756,0.326,0.756,0.729C69.135,88.461,68.797,88.787,68.379,88.787z"/>
			<ellipse style="fill-rule:evenodd;clip-rule:evenodd;fill:#006F72;" cx="64.011" cy="85.385" rx="0.936" ry="0.902"/>
			<ellipse style="fill-rule:evenodd;clip-rule:evenodd;fill:#006F72;" cx="66.033" cy="82.325" rx="0.715" ry="0.689"/>
			<ellipse style="fill-rule:evenodd;clip-rule:evenodd;fill:#006F72;" cx="64.695" cy="77.852" rx="1.26" ry="1.215"/>
			<ellipse style="fill-rule:evenodd;clip-rule:evenodd;fill:#006F72;" cx="66.68" cy="73.092" rx="0.724" ry="0.698"/>
		</g>
		<g>
			<path style="fill-rule:evenodd;clip-rule:evenodd;fill:#006F72;" d="M15.007,61.271c0.723,0,1.853,0.419,2.394,1.017
				c0.732-0.619,2.319-1.144,3.781-1.483c0.532-0.774,0.578-1.37,0.529-1.724c-0.013-0.094,0.022-0.189,0.094-0.254
				c0.072-0.065,0.173-0.093,0.269-0.074c0.954,0.185,1.478,0.996,1.752,1.646c0.012,0,0.026-0.001,0.037-0.001
				c1.477,0,3.608,1.155,3.608,2.579c0,1.424-2.131,2.579-3.608,2.579c-0.049,0-0.104-0.001-0.161-0.004
				C23.167,65.83,22.543,66,22.084,66c-0.564,0-0.288-0.256,0.045-0.653c-1.659-0.306-3.834-0.924-4.729-1.681
				c-0.541,0.599-1.671,1.017-2.394,1.017c-0.977,0,0.564-0.764,0.564-1.706C15.571,62.035,14.03,61.271,15.007,61.271
				L15.007,61.271L15.007,61.271z M25.817,63.007c0.225,0,0.408-0.176,0.408-0.394c0-0.218-0.183-0.394-0.408-0.394
				c-0.226,0-0.408,0.176-0.408,0.394C25.409,62.831,25.591,63.007,25.817,63.007z"/>
			<ellipse style="fill-rule:evenodd;clip-rule:evenodd;fill:#006F72;" cx="28.175" cy="61.17" rx="0.506" ry="0.487"/>
			<ellipse style="fill-rule:evenodd;clip-rule:evenodd;fill:#006F72;" cx="27.084" cy="59.518" rx="0.386" ry="0.372"/>
			<ellipse style="fill-rule:evenodd;clip-rule:evenodd;fill:#006F72;" cx="27.806" cy="57.102" rx="0.68" ry="0.656"/>
			<ellipse style="fill-rule:evenodd;clip-rule:evenodd;fill:#006F72;" cx="26.734" cy="54.532" rx="0.391" ry="0.377"/>
		</g>
	</g>
</g>
<g id="Layer_1">
</g>
</svg>
