<?xml version="1.0" encoding="iso-8859-1"?>
<!-- Generator: Adobe Illustrator 19.1.1, SVG Export Plug-In . SVG Version: 6.00 Build 0)  -->
<svg version="1.1" xmlns="http://www.w3.org/2000/svg" xmlns:xlink="http://www.w3.org/1999/xlink" x="0px" y="0px"
	 viewBox="0 0 100 100" style="enable-background:new 0 0 100 100;" xml:space="preserve">
<g id="Layer_2">
	<g>
		<rect x="0" style="fill-rule:evenodd;clip-rule:evenodd;fill:#008889;" width="100" height="100"/>
		<path style="fill-rule:evenodd;clip-rule:evenodd;fill:#009294;" d="M12,15c1.652,0,3-1.348,3-3s-1.348-3-3-3s-3,1.348-3,3
			S10.348,15,12,15z"/>
		<path style="fill-rule:evenodd;clip-rule:evenodd;fill:#009294;" d="M32,35c1.652,0,3-1.348,3-3c0-1.652-1.348-3-3-3
			c-1.652,0-3,1.348-3,3C29,33.652,30.348,35,32,35z"/>
		<path style="fill-rule:evenodd;clip-rule:evenodd;fill:#009294;" d="M88,17c1.652,0,3-1.348,3-3s-1.348-3-3-3
			c-1.652,0-3,1.348-3,3S86.348,17,88,17z"/>
		<path style="fill-rule:evenodd;clip-rule:evenodd;fill:#009294;" d="M72,27c1.652,0,3-1.348,3-3s-1.348-3-3-3s-3,1.348-3,3
			S70.348,27,72,27z"/>
		<path style="fill-rule:evenodd;clip-rule:evenodd;fill:#009294;" d="M58,38c2.203,0,4-1.797,4-4c0-2.203-1.797-4-4-4
			c-2.203,0-4,1.797-4,4C54,36.203,55.797,38,58,38z"/>
		<path style="fill-rule:evenodd;clip-rule:evenodd;fill:#009294;" d="M29,72c1.652,0,3-1.348,3-3c0-1.652-1.348-3-3-3s-3,1.348-3,3
			C26,70.652,27.348,72,29,72z"/>
		<circle style="fill-rule:evenodd;clip-rule:evenodd;fill:#009294;" cx="92" cy="81" r="2"/>
		<circle style="fill-rule:evenodd;clip-rule:evenodd;fill:#009294;" cx="68" cy="70" r="2"/>
		<path style="fill-rule:evenodd;clip-rule:evenodd;fill:#009294;" d="M80,51c1.101,0,2-0.898,2-2c0-1.101-0.898-2-2-2s-2,0.899-2,2
			C78,50.102,78.898,51,80,51z"/>
		<circle style="fill-rule:evenodd;clip-rule:evenodd;fill:#009294;" cx="52" cy="16" r="2"/>
		<circle style="fill-rule:evenodd;clip-rule:evenodd;fill:#009294;" cx="23" cy="87" r="1"/>
		<circle style="fill-rule:evenodd;clip-rule:evenodd;fill:#009294;" cx="13" cy="53" r="1"/>
		<circle style="fill-rule:evenodd;clip-rule:evenodd;fill:#009294;" cx="44" cy="52" r="1"/>
		<circle style="fill-rule:evenodd;clip-rule:evenodd;fill:#009294;" cx="86" cy="30" r="1"/>
		<circle style="fill-rule:evenodd;clip-rule:evenodd;fill:#009294;" cx="33" cy="14" r="1"/>
		<circle style="fill-rule:evenodd;clip-rule:evenodd;fill:#009294;" cx="50" cy="78" r="1"/>
		<path style="fill-rule:evenodd;clip-rule:evenodd;fill:#79BB9E;" d="M43.101,66.631c-0.078,0.097,0.13,0.358,0.187,0.387
			c0.941,0.49,1.574,1.072,2.076,1.915c-1.715-0.234-3.358,0.172-4.876,1.231c-0.135,0.095-0.168,0.299-0.01,0.37
			c2.038,0.915,3.123,2.767,2.939,4.989c-0.014,0.176,0.185,0.237,0.331,0.166c1.585-0.77,2.633-2.01,3.042-3.569
			c0.665,1.139,0.998,2.34,1.144,3.695c0.013,0.12,0.159,0.2,0.287,0.143c3.693-1.662,10.292-6.794,7.606-11.047
			C53.158,60.686,45.899,63.173,43.101,66.631z"/>
		<path style="fill-rule:evenodd;clip-rule:evenodd;fill:#79B042;" d="M43.101,66.632c-0.078,0.097-0.006,0.209,0.088,0.203
			c-0.008,0.071,0.017,0.142,0.098,0.185c0.942,0.49,1.574,1.071,2.076,1.915c-1.715-0.234-3.358,0.172-4.876,1.231
			c-0.135,0.095-0.168,0.299-0.01,0.37c2.038,0.915,3.123,2.767,2.939,4.989c-0.014,0.176,0.184,0.237,0.33,0.166
			c1.585-0.77,2.633-2.01,3.042-3.569c0.664,1.14,0.998,2.34,1.144,3.695c0.002,0.023,0.01,0.042,0.022,0.057
			c0.041,0.082,0.147,0.139,0.264,0.086c0.708-0.319,1.531-0.773,2.377-1.329c0.078-0.01,0.155-0.056,0.193-0.128
			c0.919-0.618,1.856-1.352,2.697-2.16c0.084-0.003,0.165-0.048,0.187-0.15c0.003-0.012,0.004-0.024,0.006-0.037
			c2.2-2.181,3.65-4.863,2.147-7.243C53.158,60.686,45.9,63.173,43.101,66.632L43.101,66.632L43.101,66.632z M49.35,74.957
			c-0.383,0.222-0.754,0.422-1.103,0.597c-0.077-1.52-0.556-2.841-1.362-4.103c-0.083-0.13-0.356-0.114-0.39,0.071
			c-0.124,0.684-1.577,4.097-2.588,3.472c-0.022-0.014-0.052-0.223-0.082-0.482c0.285-0.421,0.639-0.799,0.893-1.24
			c0.249-0.433,0.422-0.889,0.504-1.365c0.022-0.125-0.166-0.171-0.202-0.04c-0.138,0.499-0.311,0.986-0.582,1.447
			c-0.189,0.321-0.438,0.608-0.643,0.918c-0.038-0.364-0.072-0.73-0.083-0.77c-0.08-0.278-0.188-0.545-0.314-0.802
			c0.441-0.303,0.879-0.67,1.135-1.124c0.051-0.09-0.067-0.177-0.144-0.097c-0.357,0.369-0.672,0.743-1.067,1.071
			c-0.04-0.075-0.08-0.15-0.124-0.224c-0.178-0.302-0.384-0.586-0.619-0.846c0.419-0.277,0.809-0.441,1.304-0.555
			c0.147-0.034,0.115-0.241-0.024-0.237c-0.505,0.014-1.062,0.263-1.434,0.626c-0.002-0.002-0.004-0.005-0.006-0.007
			c-0.232-0.232-0.876-0.505-1.028-0.784c-0.308-0.567,0.414-0.701,1.226-0.953c1.062-0.329,2.069-0.317,3.102-0.105
			c0.196,0.04,0.339-0.172,0.261-0.327c-0.558-1.11-1.327-1.876-2.457-2.464c-0.018-0.01-0.036-0.011-0.054-0.015
			c0.051-0.048,0.104-0.092,0.156-0.14c0.019,0.026,0.045,0.049,0.086,0.061C47.41,67.639,49.632,71.242,49.35,74.957L49.35,74.957
			L49.35,74.957z M52.505,72.745c-0.41,0.348-0.834,0.68-1.263,0.989c0.277-3.504-2.351-8.171-6.346-8.311
			c0.487-0.366,0.993-0.698,1.523-0.99c0.012,0.007,0.021,0.015,0.036,0.02C50.119,65.561,52.289,69.188,52.505,72.745
			L52.505,72.745L52.505,72.745z M53.762,71.559c0.037-0.472-0.008-0.91-0.141-1.332c-0.004-0.096-0.01-0.194-0.018-0.292
			c0.121,0.498,0.197,1.021,0.207,1.577C53.794,71.527,53.777,71.542,53.762,71.559L53.762,71.559L53.762,71.559z M54.116,71.169
			c0.372-3.559-3.054-6.205-6.139-7.44c0.322-0.114,0.651-0.215,0.992-0.297c2.58-0.617,5.931-0.209,6.792,2.41
			C56.368,67.691,55.527,69.543,54.116,71.169z"/>
		<path style="fill-rule:evenodd;clip-rule:evenodd;fill:#79BB9E;" d="M35.214,55.683c-0.078,0.097,0.13,0.357,0.186,0.387
			c0.942,0.49,1.574,1.072,2.076,1.915c-1.715-0.234-3.358,0.172-4.876,1.231c-0.135,0.094-0.168,0.298-0.01,0.37
			c2.038,0.915,3.123,2.767,2.939,4.989c-0.014,0.176,0.184,0.237,0.331,0.166c1.585-0.77,2.633-2.01,3.042-3.569
			c0.665,1.14,0.998,2.34,1.144,3.695c0.013,0.12,0.159,0.2,0.286,0.143c3.693-1.662,10.292-6.794,7.607-11.047
			C45.271,49.738,38.012,52.224,35.214,55.683z"/>
		<path style="fill-rule:evenodd;clip-rule:evenodd;fill:#79B042;" d="M35.214,55.683c-0.078,0.097-0.006,0.208,0.088,0.202
			c-0.008,0.071,0.017,0.142,0.098,0.184c0.942,0.49,1.574,1.072,2.076,1.915c-1.715-0.234-3.358,0.172-4.876,1.231
			c-0.135,0.094-0.168,0.299-0.01,0.37c2.038,0.915,3.123,2.767,2.939,4.989c-0.014,0.176,0.184,0.237,0.33,0.166
			c1.585-0.77,2.633-2.009,3.042-3.569c0.664,1.139,0.998,2.34,1.144,3.695c0.002,0.023,0.01,0.042,0.022,0.057
			c0.041,0.082,0.146,0.139,0.264,0.086c0.708-0.318,1.531-0.773,2.377-1.329c0.078-0.009,0.155-0.056,0.193-0.128
			c0.919-0.617,1.856-1.352,2.697-2.16c0.084-0.003,0.165-0.049,0.187-0.151c0.003-0.012,0.004-0.024,0.006-0.037
			c2.2-2.181,3.65-4.863,2.147-7.242C45.271,49.738,38.013,52.225,35.214,55.683L35.214,55.683L35.214,55.683z M41.463,64.008
			c-0.383,0.221-0.754,0.422-1.103,0.597c-0.077-1.52-0.556-2.841-1.362-4.103c-0.083-0.13-0.356-0.114-0.39,0.071
			c-0.124,0.684-1.577,4.097-2.588,3.472c-0.022-0.014-0.052-0.222-0.082-0.482c0.285-0.421,0.639-0.798,0.893-1.239
			c0.249-0.433,0.422-0.889,0.504-1.365c0.022-0.125-0.165-0.171-0.202-0.04c-0.138,0.5-0.311,0.986-0.582,1.447
			c-0.189,0.321-0.438,0.608-0.643,0.919c-0.038-0.365-0.072-0.73-0.083-0.77c-0.08-0.278-0.188-0.545-0.314-0.802
			c0.441-0.303,0.879-0.67,1.135-1.124c0.051-0.089-0.067-0.177-0.144-0.098c-0.357,0.369-0.672,0.743-1.067,1.071
			c-0.04-0.075-0.08-0.15-0.124-0.224c-0.178-0.302-0.384-0.586-0.619-0.846c0.419-0.277,0.809-0.441,1.304-0.554
			c0.147-0.034,0.115-0.241-0.024-0.237c-0.505,0.014-1.062,0.263-1.434,0.625c-0.002-0.002-0.004-0.004-0.006-0.007
			c-0.232-0.232-0.876-0.505-1.028-0.784c-0.308-0.567,0.414-0.701,1.226-0.953c1.062-0.329,2.07-0.318,3.102-0.105
			c0.196,0.04,0.339-0.171,0.261-0.327c-0.558-1.109-1.327-1.876-2.457-2.464c-0.018-0.01-0.036-0.011-0.054-0.015
			c0.051-0.048,0.104-0.092,0.156-0.139c0.019,0.026,0.045,0.049,0.086,0.061C39.523,56.691,41.745,60.294,41.463,64.008
			L41.463,64.008L41.463,64.008z M44.618,61.797c-0.41,0.347-0.834,0.68-1.263,0.989c0.277-3.504-2.351-8.172-6.346-8.312
			c0.487-0.366,0.993-0.698,1.523-0.99c0.012,0.007,0.021,0.015,0.036,0.019C42.232,54.613,44.402,58.239,44.618,61.797
			L44.618,61.797L44.618,61.797z M45.875,60.61c0.037-0.472-0.008-0.909-0.141-1.332c-0.004-0.096-0.01-0.194-0.018-0.292
			c0.121,0.498,0.197,1.021,0.207,1.577C45.907,60.578,45.891,60.594,45.875,60.61L45.875,60.61L45.875,60.61z M46.229,60.221
			c0.372-3.559-3.054-6.205-6.139-7.44c0.322-0.115,0.651-0.215,0.992-0.297c2.58-0.616,5.931-0.209,6.792,2.41
			C48.481,56.742,47.641,58.594,46.229,60.221z"/>
		<path style="fill-rule:evenodd;clip-rule:evenodd;fill:#79BB9E;" d="M24.719,46.38c-0.078,0.097,0.13,0.357,0.187,0.387
			c0.942,0.49,1.574,1.072,2.076,1.915c-1.715-0.234-3.358,0.172-4.876,1.231c-0.135,0.094-0.168,0.298-0.01,0.37
			c2.038,0.915,3.123,2.767,2.939,4.989c-0.015,0.176,0.185,0.237,0.33,0.166c1.585-0.77,2.633-2.01,3.042-3.569
			c0.665,1.14,0.998,2.34,1.144,3.695c0.013,0.12,0.159,0.2,0.286,0.143c3.694-1.662,10.292-6.794,7.607-11.047
			C34.775,40.434,27.517,42.921,24.719,46.38z"/>
		<path style="fill-rule:evenodd;clip-rule:evenodd;fill:#79B042;" d="M24.719,46.38c-0.078,0.097-0.006,0.208,0.088,0.203
			c-0.008,0.071,0.017,0.142,0.098,0.184c0.942,0.49,1.574,1.072,2.076,1.915c-1.715-0.234-3.358,0.172-4.877,1.231
			c-0.135,0.094-0.168,0.299-0.01,0.37c2.038,0.915,3.123,2.767,2.939,4.989c-0.014,0.176,0.184,0.237,0.33,0.166
			c1.585-0.77,2.633-2.01,3.042-3.569c0.665,1.139,0.998,2.34,1.144,3.695c0.003,0.023,0.011,0.041,0.022,0.057
			c0.041,0.082,0.147,0.139,0.264,0.086c0.708-0.318,1.53-0.774,2.377-1.329c0.078-0.009,0.155-0.056,0.193-0.128
			c0.919-0.617,1.856-1.352,2.697-2.159c0.084-0.003,0.165-0.049,0.186-0.15c0.003-0.013,0.004-0.024,0.006-0.037
			c2.2-2.181,3.649-4.863,2.147-7.242C34.776,40.434,27.517,42.922,24.719,46.38L24.719,46.38L24.719,46.38z M30.967,54.705
			c-0.383,0.221-0.754,0.422-1.103,0.597c-0.077-1.52-0.555-2.841-1.362-4.103c-0.083-0.13-0.356-0.114-0.39,0.071
			c-0.125,0.684-1.577,4.098-2.588,3.472c-0.022-0.014-0.052-0.222-0.082-0.482c0.285-0.421,0.639-0.798,0.893-1.239
			c0.249-0.433,0.422-0.889,0.504-1.365c0.022-0.125-0.165-0.171-0.202-0.04c-0.138,0.5-0.311,0.986-0.582,1.447
			c-0.188,0.321-0.437,0.609-0.643,0.919c-0.038-0.364-0.072-0.73-0.083-0.77c-0.079-0.278-0.187-0.545-0.314-0.802
			c0.441-0.303,0.879-0.67,1.135-1.124c0.051-0.089-0.067-0.177-0.144-0.098c-0.357,0.369-0.672,0.743-1.067,1.071
			c-0.04-0.075-0.08-0.15-0.124-0.224c-0.178-0.302-0.384-0.586-0.619-0.846c0.419-0.276,0.809-0.441,1.304-0.554
			c0.147-0.034,0.115-0.241-0.024-0.237c-0.505,0.014-1.062,0.263-1.434,0.626c-0.002-0.002-0.004-0.005-0.006-0.007
			c-0.232-0.232-0.876-0.505-1.028-0.784c-0.308-0.567,0.413-0.701,1.226-0.953c1.062-0.329,2.07-0.318,3.102-0.106
			c0.196,0.04,0.339-0.172,0.261-0.327c-0.558-1.109-1.327-1.876-2.458-2.464c-0.018-0.009-0.036-0.011-0.054-0.015
			c0.051-0.048,0.104-0.092,0.156-0.139c0.019,0.026,0.045,0.049,0.086,0.061C29.028,47.387,31.249,50.99,30.967,54.705
			L30.967,54.705L30.967,54.705z M34.123,52.493c-0.41,0.348-0.834,0.68-1.263,0.989c0.277-3.504-2.351-8.172-6.346-8.311
			c0.487-0.367,0.993-0.698,1.523-0.99c0.012,0.007,0.021,0.015,0.036,0.019C31.737,45.309,33.907,48.936,34.123,52.493
			L34.123,52.493L34.123,52.493z M35.38,51.307c0.037-0.472-0.008-0.909-0.141-1.332c-0.004-0.096-0.01-0.194-0.019-0.292
			c0.122,0.497,0.197,1.02,0.207,1.577C35.412,51.275,35.395,51.29,35.38,51.307L35.38,51.307L35.38,51.307z M35.734,50.917
			c0.372-3.559-3.054-6.205-6.139-7.44c0.322-0.115,0.651-0.215,0.992-0.297c2.58-0.616,5.931-0.209,6.792,2.41
			C37.986,47.439,37.145,49.291,35.734,50.917z"/>
		<path style="fill-rule:evenodd;clip-rule:evenodd;fill:#79BB9E;" d="M51.504,51.621c-0.078,0.097,0.13,0.358,0.187,0.387
			c0.942,0.49,1.574,1.072,2.076,1.915c-1.715-0.234-3.358,0.172-4.876,1.231c-0.135,0.094-0.168,0.299-0.01,0.37
			c2.037,0.914,3.123,2.767,2.939,4.989c-0.015,0.176,0.184,0.237,0.33,0.166c1.585-0.771,2.633-2.01,3.042-3.569
			c0.664,1.14,0.998,2.34,1.144,3.695c0.013,0.119,0.159,0.2,0.287,0.143c3.693-1.662,10.291-6.794,7.606-11.047
			C61.56,45.676,54.302,48.163,51.504,51.621z"/>
		<path style="fill-rule:evenodd;clip-rule:evenodd;fill:#79B042;" d="M51.504,51.621c-0.079,0.097-0.006,0.208,0.088,0.203
			c-0.008,0.071,0.017,0.142,0.098,0.184c0.942,0.49,1.574,1.072,2.076,1.915c-1.715-0.234-3.358,0.172-4.876,1.231
			c-0.136,0.094-0.168,0.299-0.01,0.37c2.038,0.914,3.123,2.767,2.939,4.989c-0.014,0.176,0.185,0.237,0.331,0.166
			c1.585-0.771,2.633-2.01,3.042-3.569c0.665,1.139,0.998,2.34,1.144,3.695c0.002,0.023,0.01,0.042,0.022,0.057
			c0.041,0.082,0.146,0.139,0.264,0.086c0.708-0.318,1.531-0.774,2.377-1.329c0.078-0.009,0.155-0.056,0.193-0.128
			c0.919-0.618,1.856-1.352,2.697-2.16c0.084-0.003,0.165-0.049,0.186-0.15c0.003-0.013,0.004-0.024,0.006-0.037
			c2.2-2.182,3.65-4.863,2.147-7.243C61.56,45.676,54.302,48.163,51.504,51.621L51.504,51.621L51.504,51.621z M57.752,59.947
			c-0.383,0.221-0.754,0.422-1.103,0.597c-0.077-1.52-0.556-2.841-1.362-4.104c-0.083-0.13-0.357-0.114-0.39,0.072
			c-0.125,0.684-1.577,4.097-2.588,3.472c-0.022-0.014-0.052-0.222-0.082-0.482c0.285-0.421,0.639-0.798,0.893-1.239
			c0.249-0.433,0.422-0.889,0.504-1.365c0.021-0.125-0.166-0.171-0.202-0.04c-0.138,0.5-0.311,0.987-0.582,1.447
			c-0.189,0.32-0.438,0.608-0.643,0.918c-0.038-0.364-0.071-0.73-0.083-0.77c-0.08-0.278-0.187-0.545-0.314-0.802
			c0.441-0.303,0.879-0.67,1.135-1.124c0.05-0.09-0.067-0.177-0.144-0.098c-0.357,0.369-0.671,0.743-1.067,1.071
			c-0.04-0.075-0.081-0.15-0.124-0.224c-0.178-0.302-0.384-0.586-0.619-0.846c0.419-0.276,0.809-0.441,1.304-0.555
			c0.147-0.034,0.115-0.241-0.024-0.237c-0.505,0.014-1.062,0.263-1.434,0.626c-0.002-0.002-0.004-0.005-0.006-0.007
			c-0.232-0.232-0.876-0.505-1.028-0.784c-0.308-0.567,0.414-0.701,1.226-0.953c1.062-0.329,2.07-0.318,3.102-0.106
			c0.195,0.04,0.339-0.171,0.261-0.327c-0.558-1.109-1.327-1.876-2.457-2.464c-0.019-0.01-0.036-0.011-0.054-0.015
			c0.051-0.048,0.104-0.092,0.156-0.139c0.019,0.026,0.045,0.049,0.086,0.062C55.813,52.629,58.034,56.232,57.752,59.947
			L57.752,59.947L57.752,59.947z M60.908,57.735c-0.41,0.348-0.833,0.68-1.263,0.989c0.277-3.504-2.351-8.171-6.346-8.311
			c0.487-0.367,0.993-0.698,1.523-0.99c0.012,0.006,0.021,0.015,0.036,0.019C58.521,50.551,60.692,54.177,60.908,57.735
			L60.908,57.735L60.908,57.735z M62.165,56.548c0.036-0.472-0.008-0.909-0.142-1.332c-0.004-0.096-0.01-0.194-0.018-0.292
			c0.121,0.498,0.197,1.021,0.207,1.577C62.196,56.516,62.18,56.532,62.165,56.548L62.165,56.548L62.165,56.548z M62.518,56.159
			c0.372-3.559-3.054-6.205-6.139-7.44c0.322-0.115,0.651-0.215,0.992-0.297c2.58-0.617,5.931-0.209,6.792,2.41
			C64.771,52.68,63.93,54.532,62.518,56.159z"/>
		<path style="fill-rule:evenodd;clip-rule:evenodd;fill:#79BB9E;" d="M41.776,41.381c-0.078,0.097,0.13,0.358,0.187,0.387
			c0.942,0.49,1.574,1.072,2.076,1.915c-1.715-0.234-3.359,0.172-4.876,1.231c-0.135,0.094-0.168,0.299-0.01,0.37
			c2.038,0.915,3.123,2.767,2.939,4.989c-0.015,0.176,0.184,0.237,0.33,0.166c1.585-0.77,2.633-2.01,3.042-3.569
			c0.665,1.139,0.998,2.34,1.144,3.695c0.013,0.119,0.159,0.2,0.287,0.143c3.693-1.662,10.292-6.794,7.606-11.047
			C51.833,35.436,44.574,37.923,41.776,41.381z"/>
		<path style="fill-rule:evenodd;clip-rule:evenodd;fill:#79B042;" d="M41.776,41.381c-0.079,0.097-0.006,0.208,0.088,0.203
			c-0.008,0.071,0.017,0.142,0.098,0.184c0.942,0.49,1.574,1.072,2.076,1.915c-1.715-0.234-3.358,0.172-4.876,1.231
			c-0.135,0.095-0.168,0.299-0.01,0.37c2.038,0.915,3.123,2.767,2.939,4.989c-0.015,0.176,0.184,0.237,0.33,0.166
			c1.585-0.771,2.633-2.01,3.042-3.569c0.665,1.139,0.998,2.34,1.144,3.695c0.003,0.023,0.01,0.042,0.022,0.057
			c0.041,0.082,0.147,0.139,0.264,0.086c0.708-0.318,1.531-0.773,2.377-1.329c0.078-0.01,0.155-0.056,0.193-0.128
			c0.919-0.618,1.856-1.352,2.697-2.159c0.084-0.003,0.165-0.049,0.186-0.15c0.003-0.013,0.004-0.024,0.006-0.037
			c2.2-2.182,3.65-4.863,2.147-7.243C51.833,35.436,44.574,37.923,41.776,41.381L41.776,41.381L41.776,41.381z M48.024,49.707
			c-0.383,0.221-0.754,0.422-1.103,0.597c-0.077-1.52-0.556-2.841-1.362-4.103c-0.083-0.13-0.357-0.114-0.39,0.071
			c-0.125,0.684-1.577,4.098-2.588,3.473c-0.022-0.014-0.052-0.223-0.082-0.482c0.285-0.421,0.639-0.799,0.893-1.24
			c0.249-0.433,0.422-0.889,0.504-1.365c0.022-0.125-0.166-0.171-0.202-0.04c-0.138,0.499-0.311,0.987-0.582,1.447
			c-0.189,0.321-0.438,0.608-0.643,0.918c-0.038-0.364-0.071-0.73-0.083-0.77c-0.08-0.278-0.187-0.545-0.314-0.802
			c0.441-0.303,0.879-0.67,1.135-1.124c0.05-0.09-0.067-0.177-0.144-0.098c-0.357,0.369-0.672,0.743-1.067,1.071
			c-0.04-0.075-0.081-0.15-0.124-0.224c-0.178-0.302-0.383-0.586-0.619-0.846c0.419-0.277,0.809-0.441,1.304-0.555
			c0.147-0.033,0.115-0.241-0.024-0.237c-0.505,0.014-1.062,0.263-1.434,0.626c-0.002-0.002-0.004-0.005-0.006-0.007
			c-0.232-0.232-0.876-0.505-1.027-0.784c-0.308-0.567,0.414-0.701,1.226-0.953c1.062-0.329,2.07-0.318,3.102-0.106
			c0.195,0.04,0.339-0.171,0.261-0.327c-0.558-1.11-1.327-1.876-2.457-2.464c-0.018-0.01-0.036-0.011-0.054-0.015
			c0.051-0.048,0.104-0.092,0.156-0.139c0.019,0.026,0.045,0.049,0.086,0.062C46.085,42.389,48.306,45.992,48.024,49.707
			L48.024,49.707L48.024,49.707z M51.18,47.495c-0.41,0.348-0.833,0.68-1.263,0.989c0.277-3.504-2.351-8.171-6.346-8.311
			c0.487-0.366,0.993-0.698,1.523-0.99c0.012,0.007,0.021,0.015,0.036,0.02C48.794,40.311,50.964,43.937,51.18,47.495L51.18,47.495
			L51.18,47.495z M52.437,46.308c0.037-0.472-0.008-0.91-0.141-1.333c-0.004-0.096-0.01-0.194-0.018-0.292
			c0.121,0.498,0.197,1.02,0.207,1.577C52.469,46.276,52.452,46.292,52.437,46.308L52.437,46.308L52.437,46.308z M52.791,45.919
			c0.372-3.559-3.054-6.205-6.139-7.44c0.321-0.115,0.651-0.215,0.992-0.297c2.58-0.617,5.931-0.209,6.792,2.41
			C55.043,42.44,54.202,44.292,52.791,45.919z"/>
		<path style="fill-rule:evenodd;clip-rule:evenodd;fill:#79BB9E;" d="M58.717,36.944c-0.078,0.097,0.13,0.357,0.187,0.387
			c0.942,0.49,1.574,1.072,2.076,1.915c-1.715-0.234-3.358,0.172-4.876,1.231c-0.135,0.094-0.168,0.299-0.01,0.37
			c2.038,0.915,3.123,2.767,2.939,4.989c-0.014,0.176,0.185,0.237,0.33,0.166c1.585-0.77,2.633-2.01,3.042-3.569
			c0.665,1.14,0.998,2.34,1.144,3.695c0.013,0.12,0.159,0.2,0.286,0.143c3.693-1.662,10.292-6.794,7.606-11.047
			C68.773,30.999,61.515,33.486,58.717,36.944z"/>
		<path style="fill-rule:evenodd;clip-rule:evenodd;fill:#79B042;" d="M58.717,36.945c-0.078,0.097-0.006,0.208,0.088,0.203
			c-0.007,0.071,0.017,0.142,0.099,0.184c0.942,0.49,1.574,1.072,2.076,1.915c-1.715-0.234-3.358,0.172-4.876,1.231
			c-0.135,0.094-0.168,0.299-0.01,0.37c2.038,0.915,3.123,2.767,2.939,4.989c-0.014,0.176,0.184,0.237,0.33,0.166
			c1.585-0.77,2.633-2.01,3.042-3.569c0.664,1.139,0.998,2.34,1.144,3.695c0.003,0.023,0.011,0.041,0.022,0.057
			c0.041,0.082,0.147,0.139,0.265,0.086c0.708-0.318,1.53-0.774,2.377-1.329c0.078-0.009,0.155-0.056,0.193-0.128
			c0.919-0.617,1.856-1.352,2.697-2.159c0.084-0.003,0.165-0.048,0.187-0.15c0.003-0.013,0.004-0.024,0.006-0.037
			c2.2-2.181,3.649-4.863,2.147-7.243C68.773,30.999,61.515,33.486,58.717,36.945L58.717,36.945L58.717,36.945z M64.965,45.27
			c-0.383,0.221-0.754,0.422-1.103,0.597c-0.077-1.52-0.556-2.841-1.362-4.103c-0.083-0.13-0.357-0.114-0.39,0.071
			c-0.125,0.684-1.577,4.098-2.588,3.472c-0.022-0.014-0.052-0.222-0.082-0.482c0.285-0.421,0.639-0.799,0.893-1.239
			c0.249-0.433,0.422-0.889,0.504-1.365c0.022-0.125-0.166-0.171-0.202-0.04c-0.138,0.5-0.311,0.987-0.582,1.447
			c-0.189,0.321-0.438,0.609-0.643,0.919c-0.038-0.364-0.072-0.73-0.083-0.77c-0.08-0.278-0.187-0.545-0.314-0.802
			c0.442-0.303,0.879-0.67,1.135-1.124c0.051-0.089-0.067-0.177-0.144-0.097c-0.358,0.369-0.672,0.743-1.067,1.071
			c-0.04-0.075-0.08-0.15-0.124-0.224c-0.178-0.302-0.384-0.586-0.619-0.846c0.419-0.276,0.809-0.441,1.304-0.554
			c0.147-0.034,0.115-0.241-0.024-0.237c-0.505,0.014-1.062,0.263-1.434,0.626c-0.002-0.002-0.004-0.005-0.006-0.007
			c-0.233-0.232-0.876-0.505-1.028-0.784c-0.308-0.567,0.414-0.701,1.226-0.953c1.062-0.329,2.07-0.318,3.102-0.106
			c0.196,0.04,0.339-0.171,0.261-0.327c-0.558-1.109-1.327-1.876-2.458-2.464c-0.018-0.009-0.036-0.011-0.054-0.015
			c0.051-0.048,0.104-0.092,0.156-0.14c0.019,0.026,0.045,0.049,0.086,0.062C63.026,37.952,65.247,41.555,64.965,45.27L64.965,45.27
			L64.965,45.27z M68.121,43.058c-0.41,0.348-0.834,0.68-1.263,0.989c0.277-3.504-2.351-8.171-6.346-8.311
			c0.487-0.367,0.993-0.698,1.523-0.99c0.012,0.007,0.021,0.015,0.036,0.019C65.735,35.874,67.905,39.501,68.121,43.058
			L68.121,43.058L68.121,43.058z M69.378,41.871c0.037-0.472-0.008-0.909-0.141-1.332c-0.004-0.096-0.01-0.194-0.018-0.292
			c0.121,0.497,0.197,1.02,0.207,1.577C69.41,41.839,69.393,41.855,69.378,41.871L69.378,41.871L69.378,41.871z M69.732,41.482
			c0.372-3.559-3.054-6.205-6.139-7.44c0.322-0.114,0.651-0.215,0.992-0.297c2.58-0.616,5.931-0.209,6.792,2.41
			C71.984,38.003,71.143,39.855,69.732,41.482z"/>
		<path style="fill-rule:evenodd;clip-rule:evenodd;fill:#007376;" d="M0,96.053c50,3.947,58-21.052,100,0l0,3.947H0
			C0,98.684,0,97.368,0,96.053z"/>
		<path style="fill-rule:evenodd;clip-rule:evenodd;fill:#009294;" d="M100,1.259c0-0.42,0-0.839,0-1.259C66.667,0,33.333,0,0,0
			c0,0.43,0,0.859,0,1.289C43.478,23.752,41.877,1.911,100,1.259z"/>
	</g>
</g>
<g id="Layer_1">
</g>
</svg>
