<?xml version="1.0" encoding="iso-8859-1"?>
<!-- Generator: Adobe Illustrator 19.1.1, SVG Export Plug-In . SVG Version: 6.00 Build 0)  -->
<svg version="1.1" xmlns="http://www.w3.org/2000/svg" xmlns:xlink="http://www.w3.org/1999/xlink" x="0px" y="0px"
	 viewBox="0 0 100 100" style="enable-background:new 0 0 100 100;" xml:space="preserve">
<g id="Layer_6">
	<g>
		<rect x="-102.593" y="200.175" style="fill-rule:evenodd;clip-rule:evenodd;fill:#007376;" width="99.999" height="100"/>
		<path style="fill-rule:evenodd;clip-rule:evenodd;fill:#006A6C;" d="M-102.594,219.251c2.021,8.384,13.05,22.582,35,10.001
			c16-15.001,30-13.001,41-4.001c6.968,3.902,12.5,18,24,3.994v30.006l-99.999,0C-102.594,245.918-102.594,232.585-102.594,219.251z
			"/>
		<path style="fill-rule:evenodd;clip-rule:evenodd;fill:#006063;" d="M-102.594,241.175c2.021,8.384,13.05,22.582,35,10.001
			c16-15.001,30-13,41-4c6.968,3.902,12.5,18,24,3.994l0,30.005h-99.999C-102.594,267.842-102.594,254.508-102.594,241.175z"/>
		<path style="fill-rule:evenodd;clip-rule:evenodd;fill:#00575A;" d="M-102.594,260.175c2.021,8.384,13.05,22.582,35,10.001
			c16-15.001,30-13.001,41-4.001c6.968,3.902,12.5,18,24,3.994l0,30.006h-99.999C-102.594,286.842-102.594,273.508-102.594,260.175z
			"/>
		<path style="fill-rule:evenodd;clip-rule:evenodd;fill:#FFC230;" d="M-102.594,276.176c11.724,7.255,23.409,8.637,35.004,0
			c13.564-9.43,27.368-14.237,40.97,0c8.113,6.168,16.14,7.2,24.026,0v24h-100C-102.594,292.175-102.594,284.175-102.594,276.176z"
			/>
		<path style="fill-rule:evenodd;clip-rule:evenodd;fill:#004A4A;" d="M-88.537,274.23c1.715-4.642,9.935-14.979,9.935-14.979
			c2.302-9.419-5.962-19.193-5.962-19.193c9.377,6.993,9.298,16.293,9.298,16.293c1.193,7.231-5.482,12.952-5.482,12.952
			c-4.942,3.306-2.392,14.225-2.392,14.225c-4.265,1.939-6.192-1.191-6.192-1.191S-89.942,278.031-88.537,274.23z"/>
		<path style="fill-rule:evenodd;clip-rule:evenodd;fill:#004A4A;" d="M-86.58,279.652c0,0,0.115,2.661,3.272,3.078
			c0,0-5.008,2.842-6.954-0.884c-1.946-3.727,1.949-11.832-0.368-14.605c-2.322-2.771-7.327-7.091-9.264-11.622
			c0,0-1.431-3.346-0.747-4.981c0,0-0.594,3.401,4.383,6.204c4.977,2.802,10.22,7.748,10.131,12.933
			C-86.218,274.96-86.739,275.969-86.58,279.652z"/>
		<path style="fill-rule:evenodd;clip-rule:evenodd;fill:#FEDD6C;" d="M-102.594,276.176c11.724,7.255,23.409,8.637,35.004,0
			c13.564-9.43,27.368-14.237,40.97,0c8.113,6.168,16.14,7.2,24.026,0v6c-7.886,7.2-15.912,2.17-24.026-3.998
			c-13.602-14.237-27.407-7.431-40.97,1.999c-8.004,5.499-23.28,9.254-35.004,1.999V276.176z"/>
		<path style="fill-rule:evenodd;clip-rule:evenodd;fill:#FCB116;" d="M-48.595,280.207c-1.349-2.178-2-2-2-6
			c0.443-2.387,2.224-3.252,4.382-3.798c3.699-0.936,8.336,0.988,9.555,4.785c0.563,3.513-2.727,4.288-4.84,6.013
			c0.043,0.361,0.904,0.5,0.815,1.771c-0.162,0.871-1.311,1.195-2.131,1.223c-0.853,0.029-1.9-0.786-2.781-0.995
			c-1.629-0.239-3,0.5-4.09-1.076C-50.015,281.004-49.393,280.051-48.595,280.207z"/>
		<path style="fill-rule:evenodd;clip-rule:evenodd;fill:#FCB116;" d="M-102.594,290.175c54.999,17,19.5-3.5,57.023,2.028
			c57.976,11.972,0.476-7.528,42.976-2.028v10h-99.999C-102.594,296.842-102.594,293.508-102.594,290.175z"/>
		<path style="fill-rule:evenodd;clip-rule:evenodd;fill:#ED8C22;" d="M-80.213,298.21c6.667,0,9.119-8.035,18.619-7.035
			c0-5-8.199-9.634-9.839-8.776c-2.083,1.292-19.842,6.262-20.161,6.812C-91.094,293.71-83.213,298.21-80.213,298.21z"/>
		<path style="fill-rule:evenodd;clip-rule:evenodd;fill:#007064;" d="M-80.594,296.21c0.691-0.272,4.5,0,6.928-1.125
			c2.072-2.965,5.573-5.375,11.072-4.875C-69.094,285.21-79.1,289.488-80.594,296.21z"/>
		<path style="fill-rule:evenodd;clip-rule:evenodd;fill:#30BCB1;" d="M-80.594,296.21c4.76,0,7-10,17.998-6.121
			c-0.128-2.404-12.159-10.511-13.998-9.879c-4.524,2.806-7.633,4.71-12.774,6.112c0.063,1.167-0.238,2.188-1.225,3.888
			C-88.094,293.211-83.594,296.21-80.594,296.21z"/>
		<path style="fill-rule:evenodd;clip-rule:evenodd;fill:#EAA856;" d="M-83.756,293.508c0.012-0.043,0.026-0.084,0.038-0.126
			c0,0,0,0-0.001-0.002L-83.756,293.508z"/>
		<path style="fill-rule:evenodd;clip-rule:evenodd;fill:#65C7C2;" d="M-77.594,280.21c-0.988,0.457-1.364,1.153-2,2
			c0.5,3.5-2.5,12.5-5,13c2.237,0.721,3.19,0.7,4,1C-77.825,293.917-75.094,283.711-77.594,280.21z"/>
		<path style="fill-rule:evenodd;clip-rule:evenodd;fill:#65C7C2;" d="M-81.703,283.246c-0.001,0-3.664,1.8-3.891,1.964
			c0,2-1.5,5.5-2.969,7.06c0.913,0.679,1.395,0.49,2.152,0.989C-83.594,292.211-81.505,284.143-81.703,283.246z"/>
		<path style="fill-rule:evenodd;clip-rule:evenodd;fill:#65C7C2;" d="M-87.594,286.21c-2.139,0.003-4,0-4,2c0,1,1.725,2.903,2,3
			C-88.647,289.498-87.949,288.091-87.594,286.21z"/>
		<path style="fill-rule:evenodd;clip-rule:evenodd;fill:#FCB116;" d="M-26.594,295.176c2.203,0,4-0.899,4-2c0-1.101-1.797-2-4-2
			c-2.203,0-4,0.898-4,2C-30.594,294.278-28.797,295.176-26.594,295.176z"/>
		<ellipse style="fill-rule:evenodd;clip-rule:evenodd;fill:#FCB116;" cx="-96.594" cy="288.175" rx="2" ry="1"/>
		<path style="fill-rule:evenodd;clip-rule:evenodd;fill:#FCB116;" d="M-44.594,290.175c3.305,0,6-0.899,6-2c0-1.102-2.695-2-6-2
			c-3.305,0-6,0.899-6,2S-47.899,290.175-44.594,290.175z"/>
		<path style="fill-rule:evenodd;clip-rule:evenodd;fill:#004A4A;" d="M-28.565,235.433c0,0,3.027,10.626-6.201,15.338
			c-9.226,4.712-11.169,19.07-8.6,19.253c2.57,0.184,3.434-2.485,4.389-7.969c0.954-5.484,9.298-8.583,10.491-13.192
			C-27.293,244.254-26.74,241.234-28.565,235.433z"/>
		<path style="fill-rule:evenodd;clip-rule:evenodd;fill:#004A4A;" d="M-53.563,253.028c0,0,6.704,15.576,13.916,16.629
			c0,0-4.739,2.086-11.235-3.874c-6.497-5.959-0.833-20.146,1.37-23.066c2.208-2.921-0.893-12.278-3.933-13.471
			c0,0,3.218,8.245,0.238,15.418C-56.186,251.837-53.563,253.028-53.563,253.028z"/>
		<path style="fill-rule:evenodd;clip-rule:evenodd;fill:#004A4A;" d="M-43.696,263.097c-0.576-2.704-2.451-8.867-2.451-8.867
			c-0.772-5.486,0.258-13.055,0.258-13.055c-1.895,4.384-2.255,11.507-2.255,11.507c-0.4,4.213,1.06,7.494,1.06,7.494
			c1.654,1.925-0.07,8.356-0.07,8.356c0.693,1.944,2.618,0.07,2.618,0.07S-43.227,265.311-43.696,263.097z"/>
		<path style="fill-rule:evenodd;clip-rule:evenodd;fill:#004A4A;" d="M-59.548,213.442c-0.247-0.136-0.548-0.216-0.83-0.236
			c-0.42-0.031-0.846,0.012-1.269,0.029c-0.323,0.013-0.647,0.044-0.97,0.05c-0.374,0.007-0.66-0.158-0.901-0.45
			c-0.887-1.076-1.954-1.887-3.309-2.257c-0.026-0.007-0.06-0.018-0.075-0.025c-0.009-0.004-0.018-0.008-0.027-0.012
			c-0.196-0.085-0.403-0.164-0.584-0.274c-0.024-0.014-0.036-0.026-0.028-0.025c0.008,0.001,0.009-0.02,0.007-0.048
			c-0.003-0.037,0.001-0.072,0.009-0.104c0.007-0.027,0.033-0.061,0.054-0.08c0.053-0.048,0.1-0.105,0.138-0.169
			c0.005-0.008,0.01-0.016,0.015-0.024c0.008-0.013,0.032-0.039,0.052-0.058c0.03-0.027,0.06-0.055,0.088-0.084
			c0.135-0.139,0.256-0.291,0.412-0.472c0.018-0.021,0.028-0.039,0.022-0.039c-0.006-0.001,0.007-0.016,0.028-0.034
			c0.114-0.094,0.235-0.181,0.363-0.26c0.016-0.01,0.031-0.02,0.045-0.031c0.022-0.016,0.06-0.04,0.085-0.051
			c0.087-0.039,0.172-0.089,0.251-0.134c0.269-0.157,0.266-0.216,0.072-0.456c-0.609-0.752-1.411-1.17-2.345-1.364
			c-0.135-0.028-0.271-0.059-0.411-0.065c-0.027-0.001-0.071-0.008-0.098-0.014c-0.086-0.017-0.176-0.014-0.261,0.01
			c-0.007,0.002-0.013,0.005-0.019,0.007c-0.01,0.005-0.04,0.014-0.064,0.028c-0.066,0.04-0.098,0.132-0.02,0.193
			c0.006,0.005,0.012,0.01,0.018,0.015c0.01,0.009,0.022,0.038,0.025,0.065c0.048,0.358-0.024,0.715-0.186,1.026
			c-0.013,0.024-0.039,0.061-0.057,0.081c-0.169,0.191-0.346,0.377-0.541,0.543c-0.042,0.036-0.085,0.071-0.128,0.105
			c-0.022,0.017-0.042,0.032-0.045,0.034c-0.002,0.001-0.004,0.002-0.006,0.003c-0.009,0.005-0.017,0.01-0.024,0.015
			c-0.012,0.01-0.037,0.034-0.059,0.05c-0.395,0.295-0.827,0.547-1.236,0.826c-0.275,0.187-0.55,0.374-0.817,0.573
			c-0.382,0.285-0.506,0.664-0.382,1.126c0.083,0.311,0.162,0.623,0.248,0.962c0.007,0.027,0.013,0.071,0.014,0.098
			c0.016,0.391,0.033,0.782,0.049,1.173c0.001,0.027-0.007,0.052-0.018,0.054c-0.011,0.002-0.021,0.026-0.021,0.053
			c-0.011,0.799-0.071,1.599-0.41,2.377c-0.011,0.025-0.001,0.057,0.023,0.071c0.931,0.547,1.882,0.957,2.948,1.006
			c0.027,0.001,0.071,0.009,0.097,0.018c0.067,0.021,0.133,0.043,0.2,0.065c0.076,0.024,0.127-0.023,0.14-0.083
			c0.006-0.027,0.015-0.07,0.015-0.098c0-0.021-0.008-0.044-0.026-0.067c-0.109-0.138-0.218-0.276-0.327-0.415
			c-0.017-0.021-0.032-0.047-0.035-0.057c-0.002-0.006-0.004-0.012-0.007-0.017c-0.197-0.326-0.159-0.672-0.088-1.019
			c0.014-0.069,0.024-0.137,0.029-0.205c0.002-0.027,0.01-0.071,0.02-0.097c0.092-0.245,0.223-0.475,0.382-0.687
			c0.016-0.022,0.052-0.035,0.079-0.029c0.547,0.123,1.069,0.361,1.506,0.716c0.141,0.115,0.31,0.258,0.463,0.421
			c0.019,0.02,0.046,0.056,0.06,0.079c0.021,0.033,0.041,0.066,0.06,0.1c0.014,0.024,0.033,0.064,0.044,0.09
			c0.04,0.103,0.073,0.212,0.098,0.327c0.083,0.381,0.128,0.763,0.128,1.141c0,0.027-0.019,0.062-0.043,0.076
			c-0.038,0.024-0.077,0.048-0.115,0.072c-0.024,0.014-0.043,0.025-0.045,0.023c-0.001-0.002-0.023,0.004-0.049,0.014
			c-0.487,0.177-0.951,0.36-1.425,0.511c-0.765,0.244-1.463,0.593-2.025,1.18c-0.388,0.405-0.667,0.869-0.747,1.436
			c-0.008,0.062-0.008,0.126,0.001,0.193c0.004,0.028,0.019,0.029,0.032,0.005c0.105-0.188,0.223-0.363,0.352-0.526
			c0.017-0.021,0.043-0.043,0.057-0.051c0.008-0.005,0.015-0.01,0.022-0.018c0.687-0.669,1.724-0.734,2.477-0.232
			c0.023,0.015,0.054,0.046,0.071,0.068c0.033,0.043,0.066,0.087,0.098,0.13c0.016,0.022,0.014,0.055-0.007,0.074
			c-0.395,0.368-0.813,0.715-1.251,1.025c-0.848,0.598-1.721,1.174-2.632,1.669c-0.607,0.331-1.301,0.502-1.953,0.752
			c-0.363,0.139-0.721,0.291-1.082,0.439c-0.025,0.01-0.044,0.04-0.042,0.065c0.002,0.026,0.026,0.049,0.054,0.051
			c0.304,0.028,0.608,0.055,0.912,0.082c0.027,0.003,0.028,0.011,0.002,0.018c-0.554,0.16-1.073,0.417-1.534,0.757
			c-0.022,0.016-0.059,0.041-0.083,0.055c-1.232,0.723-2.416,1.514-3.474,2.489c-1.331,1.226-2.462,2.595-3.059,4.34
			c-0.058,0.17-0.134,0.333-0.203,0.498c-0.011,0.026-0.004,0.062,0.015,0.082l0.016,0.016c0.019,0.02,0.054,0.024,0.077,0.009
			c0.306-0.197,0.612-0.392,0.915-0.594c0.044-0.029,0.078-0.087,0.099-0.138c0.402-1.013,1.11-1.788,1.934-2.468
			c0.746-0.616,1.572-1.086,2.503-1.369c0.176-0.054,0.288-0.03,0.4,0.122c0.66,0.893,1.279,1.808,1.625,2.878
			c0.019,0.058,0.046,0.115,0.085,0.204c0.011,0.025,0.027,0.025,0.036-0.002c0.214-0.638,0.342-1.24,0.313-1.859
			c-0.02-0.429-0.102-0.856-0.174-1.281c-0.044-0.262-0.129-0.517-0.179-0.778c-0.139-0.731-0.001-1.158,0.527-1.57
			c0.022-0.017,0.06-0.04,0.086-0.051c0.207-0.087,0.422-0.155,0.643-0.202c0.027-0.006,0.036,0.008,0.02,0.031
			c-0.039,0.056-0.075,0.114-0.109,0.176c-0.013,0.024-0.001,0.047,0.026,0.052c0.048,0.008,0.079,0.016,0.109,0.013
			c0.578-0.069,1.156-0.133,1.731-0.217c0.084-0.012,0.188-0.111,0.223-0.195c0.164-0.385,0.446-0.596,0.848-0.698
			c0.013-0.003,0.026-0.007,0.039-0.01c0.021-0.006,0.061-0.013,0.088-0.017c1.467-0.211,2.923-0.543,4.324-1.023
			c0.75-0.257,1.525-0.61,2.153-1.11c0.021-0.017,0.06-0.024,0.086-0.014c0.955,0.346,1.949,0.447,3.016,0.231
			c0.027-0.005,0.032-0.025,0.012-0.044c-0.021-0.02-0.031-0.032-0.044-0.034c-0.85-0.16-1.531-0.578-2.111-1.157
			c-0.02-0.02-0.024-0.055-0.011-0.079c0.062-0.113,0.117-0.232,0.165-0.354c0.01-0.026,0.023-0.041,0.029-0.035
			c0.006,0.007,0.025-0.006,0.041-0.028c1.215-1.596,1.29-3.344,0.867-5.259c-0.006-0.027,0.005-0.033,0.026-0.015
			c0.379,0.335,0.61,0.023,0.881-0.114c1.097-0.551,2.153-0.387,3.15,0.244c0.353,0.224,0.642,0.55,0.959,0.831
			c0.058,0.052,0.112,0.109,0.202,0.151c0.025,0.012,0.04-0.003,0.033-0.029c-0.039-0.138-0.079-0.275-0.115-0.413
			C-57.395,215.101-58.304,214.127-59.548,213.442z"/>
		<path style="fill-rule:evenodd;clip-rule:evenodd;fill:#CD86B9;" d="M-48.569,280.811c-0.439-0.044-0.849,0.786-0.993,1.155
			c0.307,0.44,1.219,0.388,1.689,0.436c0.686,0.071,1.324,0.08,1.986,0.262c0.67,0.184,1.335,0.534,2.043,0.51
			c0.348-0.012,0.624-0.069,0.69-0.427c0.052-0.282-0.003-0.973-0.121-1.237c-0.161-0.359-0.738-0.386-1.064-0.437
			c-1.324-0.206-2.89-0.657-4.219-0.449c0.085-0.109,0.201-0.179,0.333-0.211L-48.569,280.811z"/>
		<path style="fill-rule:evenodd;clip-rule:evenodd;fill:#CD86B9;" d="M-42.777,280.991c-0.968,0.79-1.498,1.754-2.848,1.689
			c-1.095-0.053-2.308-0.653-2.959-1.599c-1.039-1.509-1.82-2.879-1.925-4.846c-0.052-0.971,0.212-2.205,0.575-3.092
			c0.427-1.044,1.992-1.551,2.963-1.797c1.991-0.504,5.959,0.089,7.283,1.991c0.725,1.042,1.693,2.685,0.822,3.926
			C-39.913,278.755-41.399,279.868-42.777,280.991z"/>
		<path style="fill-rule:evenodd;clip-rule:evenodd;fill:#E9B7D5;" d="M-41.382,274.804c0.27-0.354,1.036-1.118,1.476-0.727
			c0.214,0.19,0.376,0.77,0.288,1.062c-0.181,0.599-0.805,0.964-1.229,1.343c-1.332,1.194-2.528,2.637-3.227,4.39
			c-0.04,0.1-0.087,0.204-0.13,0.302c0.006-0.63,0.243-1.291,0.436-1.882c0.28-0.859,0.634-1.752,1.065-2.528
			C-42.31,276.054-41.865,275.438-41.382,274.804z"/>
		<path style="fill-rule:evenodd;clip-rule:evenodd;fill:#E9B7D5;" d="M-45.512,275.031c0.118-0.598,0.168-1.21,0.359-1.792
			c0.144-0.438,0.615-1.122,1.141-1.06c0.376,0.044,0.842,0.074,1.164,0.301c0.484,0.341,0.182,0.888-0.107,1.27
			c-0.661,0.876-1.432,1.623-1.932,2.621c-0.308,0.614-0.646,1.223-0.887,1.868c-0.161,0.433-0.214,0.869-0.308,1.317
			c-0.044,0.21-0.104,0.449-0.176,0.618c-0.058-0.782,0.145-1.589,0.251-2.363C-45.88,276.871-45.696,275.961-45.512,275.031z"/>
		<path style="fill-rule:evenodd;clip-rule:evenodd;fill:#E9B7D5;" d="M-46.959,272.751c0.668,0.181,0.23,0.916,0.154,1.228
			c-0.348,1.412-0.876,2.775-0.946,4.199c-0.013,0.268-0.035,0.541-0.037,0.77c-0.304-1.146-0.513-2.305-0.775-3.451
			c-0.135-0.591-0.386-1.175-0.332-1.777c0.024-0.266,0.093-0.582,0.417-0.783C-48.168,272.746-47.362,272.642-46.959,272.751z"/>
		<circle style="fill-rule:evenodd;clip-rule:evenodd;fill:#DD6A26;" cx="-59.594" cy="279.175" r="1"/>
		<circle style="fill-rule:evenodd;clip-rule:evenodd;fill:#FFFFFF;" cx="-54.594" cy="284.175" r="1"/>
		<circle style="fill-rule:evenodd;clip-rule:evenodd;fill:#ED8C22;" cx="-58.594" cy="289.175" r="1"/>
		<circle style="fill-rule:evenodd;clip-rule:evenodd;fill:#F9E6B8;" cx="-32.594" cy="280.175" r="1"/>
		<circle style="fill-rule:evenodd;clip-rule:evenodd;fill:#ED8C22;" cx="-32.594" cy="288.175" r="1"/>
		<path style="fill-rule:evenodd;clip-rule:evenodd;fill:#DD6A26;" d="M-11.594,297.175c1.102,0,2-0.899,2-2c0-1.102-0.898-2-2-2
			c-1.101,0-2,0.898-2,2C-13.594,296.276-12.696,297.175-11.594,297.175z"/>
		<circle style="fill-rule:evenodd;clip-rule:evenodd;fill:#DD6A26;" cx="-50.094" cy="294.675" r="1.5"/>
		<circle style="fill-rule:evenodd;clip-rule:evenodd;fill:#F9E6B8;" cx="-40.094" cy="297.675" r="1.5"/>
		<circle style="fill-rule:evenodd;clip-rule:evenodd;fill:#DD6A26;" cx="-97.093" cy="295.675" r="1.5"/>
		<circle style="fill-rule:evenodd;clip-rule:evenodd;fill:#F9E6B8;" cx="-62.594" cy="295.175" r="1"/>
		<circle style="opacity:0.1412;fill-rule:evenodd;clip-rule:evenodd;fill:#B7E2E5;" cx="-91.594" cy="210.175" r="3"/>
		<circle style="opacity:0.1412;fill-rule:evenodd;clip-rule:evenodd;fill:#B7E2E5;" cx="-85.984" cy="229.785" r="3.61"/>
		<circle style="opacity:0.1412;fill-rule:evenodd;clip-rule:evenodd;fill:#B7E2E5;" cx="-90.094" cy="247.675" r="2.5"/>
		<circle style="opacity:0.1412;fill-rule:evenodd;clip-rule:evenodd;fill:#B7E2E5;" cx="-65.511" cy="261.713" r="2.462"/>
		<circle style="opacity:0.1412;fill-rule:evenodd;clip-rule:evenodd;fill:#B7E2E5;" cx="-13.094" cy="269.675" r="2.5"/>
		<circle style="opacity:0.1412;fill-rule:evenodd;clip-rule:evenodd;fill:#B7E2E5;" cx="-25.556" cy="257.213" r="2.038"/>
		<circle style="opacity:0.1412;fill-rule:evenodd;clip-rule:evenodd;fill:#B7E2E5;" cx="-37.397" cy="242.53" r="1.803"/>
		<circle style="opacity:0.1412;fill-rule:evenodd;clip-rule:evenodd;fill:#B7E2E5;" cx="-96.548" cy="270.196" r="1.461"/>
		<circle style="opacity:0.1412;fill-rule:evenodd;clip-rule:evenodd;fill:#B7E2E5;" cx="-45.094" cy="209.675" r="2.5"/>
		<circle style="opacity:0.1412;fill-rule:evenodd;clip-rule:evenodd;fill:#B7E2E5;" cx="-18.594" cy="214.175" r="4"/>
		<circle style="opacity:0.1412;fill-rule:evenodd;clip-rule:evenodd;fill:#B7E2E5;" cx="-10.108" cy="238.644" r="3.531"/>
		<circle style="opacity:0.1412;fill-rule:evenodd;clip-rule:evenodd;fill:#B7E2E5;" cx="-41.094" cy="227.675" r="2.5"/>
		<circle style="opacity:0.1412;fill-rule:evenodd;clip-rule:evenodd;fill:#B7E2E5;" cx="-67.094" cy="240.675" r="2.5"/>
	</g>
</g>
<g id="Layer_1">
</g>
</svg>
